<?xml version="1.0" encoding="UTF-8"?>
<!DOCTYPE svg PUBLIC "-//W3C//DTD SVG 1.1//EN" "http://www.w3.org/Graphics/SVG/1.1/DTD/svg11.dtd">
<svg xmlns="http://www.w3.org/2000/svg" version="1.1" width="879px" height="881px" style="shape-rendering:geometricPrecision; text-rendering:geometricPrecision; image-rendering:optimizeQuality; fill-rule:evenodd; clip-rule:evenodd" xmlns:xlink="http://www.w3.org/1999/xlink">
<g><path style="opacity:1" fill="#fefefe" d="M 3.5,-0.5 C 39.5,-0.5 75.5,-0.5 111.5,-0.5C 110.167,0.166667 108.833,0.833333 107.5,1.5C 87.7613,5.70274 70.0947,14.2027 54.5,27C 40.8971,39.5982 28.3971,53.0982 17,67.5C 9.68156,78.4743 4.84823,90.4743 2.5,103.5C 1.83333,103.5 1.5,103.833 1.5,104.5C 0.335791,70.6691 0.169124,36.6691 1,2.5C 2.04499,1.62656 2.87833,0.626561 3.5,-0.5 Z"/></g>
<g><path style="opacity:1" fill="#fefefe" d="M 142.5,-0.5 C 319.833,-0.5 497.167,-0.5 674.5,-0.5C 673.5,0.166667 672.5,0.833333 671.5,1.5C 638.13,7.02084 608.797,20.8542 583.5,43C 559.291,63.8599 540.458,88.6932 527,117.5C 520.771,132.975 516.438,148.975 514,165.5C 512.953,178.496 511.953,191.496 511,204.5C 507.198,223.771 498.864,240.771 486,255.5C 472.333,269.167 458.667,282.833 445,296.5C 439.913,284.243 434.246,272.243 428,260.5C 423.687,253.697 418.853,247.364 413.5,241.5C 409.902,236.726 406.069,232.06 402,227.5C 336.113,161.613 270.279,95.7792 204.5,30C 194.223,21.0602 182.889,13.7269 170.5,8C 162.448,4.73712 154.115,2.57046 145.5,1.5C 144.5,0.833333 143.5,0.166667 142.5,-0.5 Z"/></g>
<g><path style="opacity:1" fill="#2c2c2d" d="M 674.5,-0.5 C 686.167,-0.5 697.833,-0.5 709.5,-0.5C 710.5,0.166667 711.5,0.833333 712.5,1.5C 698.846,0.593493 685.179,0.593493 671.5,1.5C 672.5,0.833333 673.5,0.166667 674.5,-0.5 Z"/></g>
<g><path style="opacity:1" fill="#fefefe" d="M 721.5,-0.5 C 773.833,-0.5 826.167,-0.5 878.5,-0.5C 878.5,54.8333 878.5,110.167 878.5,165.5C 872.395,154.787 863.395,151.287 851.5,155C 817.402,174.796 783.569,194.962 750,215.5C 719.683,198.48 701.85,172.647 696.5,138C 733.472,114.843 770.805,92.1759 808.5,70C 820.736,58.7397 820.403,47.7397 807.5,37C 782.465,17.4884 754.131,5.6551 722.5,1.5C 722.167,0.833333 721.833,0.166667 721.5,-0.5 Z"/></g>
<g><path style="opacity:1" fill="#635150" d="M 111.5,-0.5 C 121.833,-0.5 132.167,-0.5 142.5,-0.5C 143.5,0.166667 144.5,0.833333 145.5,1.5C 132.833,1.5 120.167,1.5 107.5,1.5C 108.833,0.833333 110.167,0.166667 111.5,-0.5 Z"/></g>
<g><path style="opacity:1" fill="#79797c" d="M 709.5,-0.5 C 713.5,-0.5 717.5,-0.5 721.5,-0.5C 721.833,0.166667 722.167,0.833333 722.5,1.5C 719.167,1.5 715.833,1.5 712.5,1.5C 711.5,0.833333 710.5,0.166667 709.5,-0.5 Z"/></g>
<g><path style="opacity:1" fill="#030303" d="M 712.5,1.5 C 715.833,1.5 719.167,1.5 722.5,1.5C 754.131,5.6551 782.465,17.4884 807.5,37C 820.403,47.7397 820.736,58.7397 808.5,70C 770.805,92.1759 733.472,114.843 696.5,138C 701.85,172.647 719.683,198.48 750,215.5C 783.569,194.962 817.402,174.796 851.5,155C 863.395,151.287 872.395,154.787 878.5,165.5C 878.5,177.167 878.5,188.833 878.5,200.5C 876.783,203.845 876.116,207.511 876.5,211.5C 866.898,266.111 838.898,308.111 792.5,337.5C 792.5,339.5 792.5,341.5 792.5,343.5C 788.578,345.915 785.078,348.915 782,352.5C 769.469,373.705 754.636,393.205 737.5,411C 722.486,422.507 705.819,430.84 687.5,436C 666.203,437.264 644.87,437.931 623.5,438C 614.691,439.027 607.525,442.86 602,449.5C 594.507,477.239 597.507,503.906 611,529.5C 653.671,572.171 696.504,615.004 739.5,658C 752.532,658.173 765.532,658.84 778.5,660C 793.5,664.34 805,673.173 813,686.5C 834.608,730.05 856.441,773.383 878.5,816.5C 878.5,821.167 878.5,825.833 878.5,830.5C 864.167,846.833 848.833,862.167 832.5,876.5C 826.686,877.987 821.02,877.654 815.5,875.5C 774.553,855.36 733.553,835.194 692.5,815C 676.763,807.362 666.263,795.195 661,778.5C 660.027,765.18 659.194,751.847 658.5,738.5C 594.751,675.084 531.084,611.75 467.5,548.5C 466.446,548.68 465.446,549.013 464.5,549.5C 440.342,573.791 416.175,598.124 392,622.5C 379.772,636.289 371.772,652.289 368,670.5C 368.45,705.923 361.116,739.59 346,771.5C 327.103,803.068 302.603,829.568 272.5,851C 251.889,863.927 229.556,872.427 205.5,876.5C 194.581,877.477 183.581,877.81 172.5,877.5C 168.79,875.864 164.79,875.198 160.5,875.5C 158.167,875.5 155.833,875.5 153.5,875.5C 123.045,870.684 95.878,858.684 72,839.5C 66.4368,829.781 67.9368,821.281 76.5,814C 118.096,789.397 159.429,764.397 200.5,739C 195.208,704.224 177.208,678.391 146.5,661.5C 107.321,685.162 67.9877,708.662 28.5,732C 19.3222,735.429 11.4889,733.596 5,726.5C 3.29315,724.091 2.45982,721.425 2.5,718.5C 2.5,717.167 2.5,715.833 2.5,714.5C 1.4991,698.491 1.4991,682.491 2.5,666.5C 6.18392,639.28 15.6839,614.28 31,591.5C 39.5,581.667 48,571.833 56.5,562C 63.8333,556 71.1667,550 78.5,544C 86.0736,538.714 94.0736,534.214 102.5,530.5C 104.693,529.32 107.026,528.32 109.5,527.5C 110.768,525.696 111.435,523.696 111.5,521.5C 112.77,510.232 113.937,498.899 115,487.5C 117.961,462.24 128.794,441.24 147.5,424.5C 145.86,427.78 144.193,431.114 142.5,434.5C 144.667,434.833 146.833,435.167 149,435.5C 155.657,434.994 162.324,434.661 169,434.5C 210.162,435.251 251.329,435.751 292.5,436C 295.695,436.181 298.695,436.681 301.5,437.5C 297.202,442.071 293.369,447.071 290,452.5C 277.786,473.593 266.62,495.26 256.5,517.5C 254.043,520.751 252.376,524.418 251.5,528.5C 253.415,528.216 255.081,528.549 256.5,529.5C 243.371,536.713 229.371,541.88 214.5,545C 195.213,547.374 175.879,549.374 156.5,551C 98.951,564.222 60.7843,598.722 42,654.5C 39.6815,664.071 38.3482,673.738 38,683.5C 68.5832,665.126 99.0832,646.626 129.5,628C 135.646,623.948 142.313,621.948 149.5,622C 203.679,644.817 233.012,685.65 237.5,744.5C 237.769,749.709 236.936,754.709 235,759.5C 231.419,763.752 227.252,767.252 222.5,770C 189.335,789.415 156.335,809.082 123.5,829C 130.094,831.468 136.761,833.634 143.5,835.5C 151.647,839.194 160.314,840.86 169.5,840.5C 204.379,842.371 235.712,832.871 263.5,812C 277.034,800.133 289.534,787.3 301,773.5C 305.11,766.942 308.943,760.275 312.5,753.5C 317.717,743.367 321.884,732.7 325,721.5C 327.667,700.157 330.334,678.823 333,657.5C 336.042,645.198 340.542,633.532 346.5,622.5C 353.032,612.453 360.199,602.786 368,593.5C 380.167,581.333 392.333,569.167 404.5,557C 396.995,555.973 389.662,554.306 382.5,552C 373.025,545.688 364.692,538.188 357.5,529.5C 356.445,526.927 356.278,524.261 357,521.5C 363.26,493.122 370.76,465.122 379.5,437.5C 379.611,436.883 379.944,436.383 380.5,436C 399.184,435.247 417.851,435.414 436.5,436.5C 436.262,423.497 435.928,410.497 435.5,397.5C 435.263,386.802 435.596,376.135 436.5,365.5C 437.5,365.5 438.5,365.5 439.5,365.5C 439.11,362.534 439.777,359.868 441.5,357.5C 439.74,354.788 439.073,351.788 439.5,348.5C 436.208,348.88 433.875,347.547 432.5,344.5C 434.703,340.058 435.036,335.391 433.5,330.5C 431.15,328.317 428.983,325.984 427,323.5C 426.465,325.271 425.631,325.604 424.5,324.5C 425.046,323.228 425.379,321.894 425.5,320.5C 423.785,317.275 422.451,313.942 421.5,310.5C 420.5,310.5 419.5,310.5 418.5,310.5C 418.299,305.734 415.965,302.734 411.5,301.5C 411.82,298.102 411.487,294.768 410.5,291.5C 407.917,285.732 406.25,279.732 405.5,273.5C 404.5,273.5 403.5,273.5 402.5,273.5C 402.401,270.327 403.068,267.327 404.5,264.5C 405.609,265.59 406.609,265.59 407.5,264.5C 406.05,263.15 405.383,261.484 405.5,259.5C 400.633,259.839 400.299,258.672 404.5,256C 402,255.625 399.667,254.792 397.5,253.5C 396.749,254.376 396.249,255.376 396,256.5C 394.204,255.233 392.371,255.233 390.5,256.5C 389.692,256.192 389.025,255.692 388.5,255C 392.925,251.247 396.592,246.913 399.5,242C 400.448,241.517 401.448,241.351 402.5,241.5C 402.5,240.5 402.5,239.5 402.5,238.5C 403.822,238.33 404.989,238.663 406,239.5C 406.333,238.5 406.667,237.5 407,236.5C 407.494,238.134 407.66,239.801 407.5,241.5C 409.611,240.62 411.611,240.62 413.5,241.5C 418.853,247.364 423.687,253.697 428,260.5C 434.246,272.243 439.913,284.243 445,296.5C 458.667,282.833 472.333,269.167 486,255.5C 498.864,240.771 507.198,223.771 511,204.5C 511.953,191.496 512.953,178.496 514,165.5C 516.438,148.975 520.771,132.975 527,117.5C 540.458,88.6932 559.291,63.8599 583.5,43C 608.797,20.8542 638.13,7.02084 671.5,1.5C 685.179,0.593493 698.846,0.593493 712.5,1.5 Z"/></g>
<g><path style="opacity:1" fill="#a7b4bb" d="M 740.5,42.5 C 748.504,45.0007 756.171,48.3341 763.5,52.5C 733.848,71.9577 703.515,90.4577 672.5,108C 668,111.167 664.167,115 661,119.5C 658.102,161.809 671.936,197.642 702.5,227C 716.615,239.975 732.782,249.475 751,255.5C 753.782,254.528 756.615,253.695 759.5,253C 786.5,236.833 813.5,220.667 840.5,204.5C 828.68,265.17 793.013,304.67 733.5,323C 715.381,327.104 697.048,328.438 678.5,327C 669.058,324.738 659.558,322.905 650,321.5C 645.047,320.962 640.547,322.128 636.5,325C 631.393,329.432 627.06,334.432 623.5,340C 624.308,340.308 624.975,340.808 625.5,341.5C 624.208,343.667 623.375,346 623,348.5C 622.15,355.93 620.984,363.263 619.5,370.5C 618.5,370.5 617.5,370.5 616.5,370.5C 615.184,380.472 614.017,390.472 613,400.5C 612.411,402.863 610.911,403.863 608.5,403.5C 607.178,403.67 606.011,403.337 605,402.5C 602.772,404.113 600.272,404.78 597.5,404.5C 597.5,403.5 597.5,402.5 597.5,401.5C 595.167,401.5 592.833,401.5 590.5,401.5C 590.5,400.167 590.5,398.833 590.5,397.5C 588.226,397.715 586.059,398.382 584,399.5C 583.167,399.167 582.333,398.833 581.5,398.5C 583.104,396.821 583.771,394.821 583.5,392.5C 584.5,392.5 585.5,392.5 586.5,392.5C 586.5,380.5 586.5,368.5 586.5,356.5C 584.833,356.5 583.167,356.5 581.5,356.5C 581.5,359.5 581.5,362.5 581.5,365.5C 578.534,365.11 575.868,365.777 573.5,367.5C 567.387,365.599 561.053,364.932 554.5,365.5C 554.5,363.167 554.5,360.833 554.5,358.5C 553.5,358.5 552.5,358.5 551.5,358.5C 551.5,362.833 551.5,367.167 551.5,371.5C 550.167,371.5 548.833,371.5 547.5,371.5C 547.5,373.167 547.5,374.833 547.5,376.5C 544.167,374.167 540.833,371.833 537.5,369.5C 537.151,375.212 535.485,380.545 532.5,385.5C 531.511,381.893 531.177,378.226 531.5,374.5C 532.833,374.5 534.167,374.5 535.5,374.5C 535.5,368.5 535.5,362.5 535.5,356.5C 533.856,356.714 532.356,356.38 531,355.5C 530.503,352.854 530.336,350.187 530.5,347.5C 527.833,347.5 525.167,347.5 522.5,347.5C 522.281,346.325 522.614,345.325 523.5,344.5C 524.328,345.415 525.328,346.081 526.5,346.5C 528.056,345.453 529.723,344.786 531.5,344.5C 532.167,348.5 532.833,348.5 533.5,344.5C 535.124,344.36 536.29,345.027 537,346.5C 539.268,343.915 540.434,340.915 540.5,337.5C 537.5,337.5 534.5,337.5 531.5,337.5C 531.5,336.167 531.5,334.833 531.5,333.5C 529.833,333.5 528.167,333.5 526.5,333.5C 526.5,334.833 526.5,336.167 526.5,337.5C 518.653,337.618 510.987,337.618 503.5,337.5C 502.833,336.833 502.167,336.167 501.5,335.5C 498.99,331.237 495.324,328.404 490.5,327C 489.663,325.989 489.33,324.822 489.5,323.5C 486.399,323.308 483.399,322.642 480.5,321.5C 479.417,320.635 479.251,319.635 480,318.5C 480.333,318.833 480.667,319.167 481,319.5C 482.216,315.948 483.883,312.615 486,309.5C 490.304,307.696 493.471,304.696 495.5,300.5C 499.649,298.692 502.315,295.692 503.5,291.5C 504.552,291.649 505.552,291.483 506.5,291C 509.349,286.986 512.682,283.486 516.5,280.5C 518.416,276.912 521.083,273.912 524.5,271.5C 526.655,265.857 529.821,260.857 534,256.5C 534.813,254.564 535.313,252.564 535.5,250.5C 536.833,250.5 538.167,250.5 539.5,250.5C 540.962,246.276 542.128,241.943 543,237.5C 545.408,232.932 547.575,228.265 549.5,223.5C 550.833,223.5 552.167,223.5 553.5,223.5C 553.5,221.833 553.5,220.167 553.5,218.5C 554.5,218.5 555.5,218.5 556.5,218.5C 558.017,210.93 558.684,203.263 558.5,195.5C 560.167,195.5 561.833,195.5 563.5,195.5C 563.5,192.5 563.5,189.5 563.5,186.5C 564.833,186.5 566.167,186.5 567.5,186.5C 567.48,184.857 568.147,183.524 569.5,182.5C 567.604,181.534 565.604,181.201 563.5,181.5C 563.5,178.5 563.5,175.5 563.5,172.5C 564.833,172.5 566.167,172.5 567.5,172.5C 567.5,170.833 567.5,169.167 567.5,167.5C 568.552,167.649 569.552,167.483 570.5,167C 568.357,165.064 566.691,162.731 565.5,160C 567.274,155.956 568.607,151.79 569.5,147.5C 570.675,147.719 571.675,147.386 572.5,146.5C 570.955,145.548 569.288,145.215 567.5,145.5C 567.5,143.833 567.5,142.167 567.5,140.5C 566.167,140.5 564.833,140.5 563.5,140.5C 563.857,136.737 564.69,133.07 566,129.5C 571.839,120.492 577.172,111.159 582,101.5C 585.735,97.3907 589.901,93.7241 594.5,90.5C 594.991,86.2592 597.325,83.7592 601.5,83C 605.629,76.7447 611.296,72.9114 618.5,71.5C 620.663,67.8856 623.329,64.5522 626.5,61.5C 628.398,62.7345 630.065,62.4011 631.5,60.5C 632.641,59.5745 632.641,58.7412 631.5,58C 632.167,57.3333 632.833,56.6667 633.5,56C 636.362,55.7601 638.695,54.5934 640.5,52.5C 641.446,52.9867 642.446,53.3201 643.5,53.5C 645.42,52.3306 647.42,51.3306 649.5,50.5C 651.214,51.6085 651.881,50.9418 651.5,48.5C 652.833,48.5 654.167,48.5 655.5,48.5C 655.5,50.1667 655.5,51.8333 655.5,53.5C 656.833,53.5 658.167,53.5 659.5,53.5C 659.5,51.8333 659.5,50.1667 659.5,48.5C 662.5,48.5 665.5,48.5 668.5,48.5C 668.5,47.5 668.5,46.5 668.5,45.5C 670.167,45.5 671.833,45.5 673.5,45.5C 674.167,49.5 674.833,49.5 675.5,45.5C 691.211,44.5889 706.878,44.5889 722.5,45.5C 723.478,45.0233 724.311,44.3567 725,43.5C 728.887,42.9801 732.72,43.6468 736.5,45.5C 738.483,45.1852 739.816,44.1852 740.5,42.5 Z"/></g>
<g><path style="opacity:1" fill="#3d2b26" d="M 2.5,103.5 C 1.21412,118.501 1.21412,133.501 2.5,148.5C 1.88258,148.389 1.38258,148.056 1,147.5C 0.185083,133.092 0.351749,118.759 1.5,104.5C 1.5,103.833 1.83333,103.5 2.5,103.5 Z"/></g>
<g><path style="opacity:1" fill="#afbac1" d="M 740.5,42.5 C 739.816,44.1852 738.483,45.1852 736.5,45.5C 732.72,43.6468 728.887,42.9801 725,43.5C 724.311,44.3567 723.478,45.0233 722.5,45.5C 706.878,44.5889 691.211,44.5889 675.5,45.5C 674.833,49.5 674.167,49.5 673.5,45.5C 671.833,45.5 670.167,45.5 668.5,45.5C 668.5,46.5 668.5,47.5 668.5,48.5C 665.5,48.5 662.5,48.5 659.5,48.5C 659.5,50.1667 659.5,51.8333 659.5,53.5C 658.167,53.5 656.833,53.5 655.5,53.5C 655.5,51.8333 655.5,50.1667 655.5,48.5C 654.167,48.5 652.833,48.5 651.5,48.5C 651.881,50.9418 651.214,51.6085 649.5,50.5C 647.42,51.3306 645.42,52.3306 643.5,53.5C 642.446,53.3201 641.446,52.9867 640.5,52.5C 638.695,54.5934 636.362,55.7601 633.5,56C 632.833,56.6667 632.167,57.3333 631.5,58C 632.641,58.7412 632.641,59.5745 631.5,60.5C 630.065,62.4011 628.398,62.7345 626.5,61.5C 623.329,64.5522 620.663,67.8856 618.5,71.5C 611.296,72.9114 605.629,76.7447 601.5,83C 597.325,83.7592 594.991,86.2592 594.5,90.5C 589.901,93.7241 585.735,97.3907 582,101.5C 577.172,111.159 571.839,120.492 566,129.5C 564.69,133.07 563.857,136.737 563.5,140.5C 564.833,140.5 566.167,140.5 567.5,140.5C 567.5,142.167 567.5,143.833 567.5,145.5C 569.288,145.215 570.955,145.548 572.5,146.5C 571.675,147.386 570.675,147.719 569.5,147.5C 568.607,151.79 567.274,155.956 565.5,160C 566.691,162.731 568.357,165.064 570.5,167C 569.552,167.483 568.552,167.649 567.5,167.5C 567.5,169.167 567.5,170.833 567.5,172.5C 566.167,172.5 564.833,172.5 563.5,172.5C 563.5,175.5 563.5,178.5 563.5,181.5C 565.604,181.201 567.604,181.534 569.5,182.5C 568.147,183.524 567.48,184.857 567.5,186.5C 566.167,186.5 564.833,186.5 563.5,186.5C 563.5,189.5 563.5,192.5 563.5,195.5C 561.833,195.5 560.167,195.5 558.5,195.5C 558.684,203.263 558.017,210.93 556.5,218.5C 555.5,218.5 554.5,218.5 553.5,218.5C 553.5,220.167 553.5,221.833 553.5,223.5C 552.167,223.5 550.833,223.5 549.5,223.5C 547.575,228.265 545.408,232.932 543,237.5C 542.128,241.943 540.962,246.276 539.5,250.5C 538.167,250.5 536.833,250.5 535.5,250.5C 535.313,252.564 534.813,254.564 534,256.5C 529.821,260.857 526.655,265.857 524.5,271.5C 521.083,273.912 518.416,276.912 516.5,280.5C 512.682,283.486 509.349,286.986 506.5,291C 505.552,291.483 504.552,291.649 503.5,291.5C 502.315,295.692 499.649,298.692 495.5,300.5C 493.471,304.696 490.304,307.696 486,309.5C 483.883,312.615 482.216,315.948 481,319.5C 480.667,319.167 480.333,318.833 480,318.5C 479.251,319.635 479.417,320.635 480.5,321.5C 483.399,322.642 486.399,323.308 489.5,323.5C 489.33,324.822 489.663,325.989 490.5,327C 495.324,328.404 498.99,331.237 501.5,335.5C 491.976,330.986 482.309,326.653 472.5,322.5C 487.151,306.682 501.984,291.016 517,275.5C 532.321,257.521 542.321,236.855 547,213.5C 548.434,193.391 550.767,173.391 554,153.5C 556.864,145.908 559.531,138.242 562,130.5C 567.333,121.167 572.667,111.833 578,102.5C 590.5,88.6667 603.667,75.5 617.5,63C 655.063,36.1758 696.063,29.3424 740.5,42.5 Z"/></g>
<g><path style="opacity:1" fill="#fefefe" d="M 3.5,154.5 C 6.14483,166.457 10.9782,177.457 18,187.5C 22.048,191.88 25.7147,196.546 29,201.5C 73.6803,246.347 118.514,291.014 163.5,335.5C 167.142,359.898 165.308,383.898 158,407.5C 156.787,411.85 154.954,415.85 152.5,419.5C 150.5,420.833 148.833,422.5 147.5,424.5C 128.794,441.24 117.961,462.24 115,487.5C 113.937,498.899 112.77,510.232 111.5,521.5C 104.833,520.833 101.833,523.833 102.5,530.5C 94.0736,534.214 86.0736,538.714 78.5,544C 71.1667,550 63.8333,556 56.5,562C 48,571.833 39.5,581.667 31,591.5C 15.6839,614.28 6.18392,639.28 2.5,666.5C 1.83333,666.5 1.5,666.833 1.5,667.5C 0.500326,496.667 0.166993,325.667 0.5,154.5C 1.5,154.5 2.5,154.5 3.5,154.5 Z"/></g>
<g><path style="opacity:1" fill="#fd3b3a" d="M 315.5,201.5 C 315.5,204.167 315.5,206.833 315.5,209.5C 317.167,209.5 318.833,209.5 320.5,209.5C 320.5,210.833 320.5,212.167 320.5,213.5C 323.206,213.575 325.873,213.908 328.5,214.5C 328.5,215.833 328.5,217.167 328.5,218.5C 330.167,218.5 331.833,218.5 333.5,218.5C 332.833,222.5 334.5,224.167 338.5,223.5C 338.773,225.451 338.107,226.951 336.5,228C 337.563,229.188 338.897,229.688 340.5,229.5C 340.5,231.167 340.5,232.833 340.5,234.5C 341.675,234.281 342.675,234.614 343.5,235.5C 345.206,239.553 348.206,241.553 352.5,241.5C 353.108,247.364 356.441,250.364 362.5,250.5C 362.366,252.292 362.699,253.958 363.5,255.5C 362.057,256.335 361.057,257.668 360.5,259.5C 357.665,257.267 356.332,258.267 356.5,262.5C 355.167,262.5 353.833,262.5 352.5,262.5C 352.183,265.572 352.516,268.572 353.5,271.5C 354.251,270.624 354.751,269.624 355,268.5C 355.494,270.134 355.66,271.801 355.5,273.5C 352.692,273.693 350.025,274.36 347.5,275.5C 345.583,280.674 344.25,286.007 343.5,291.5C 341.833,291.5 340.167,291.5 338.5,291.5C 338.5,293.167 338.5,294.833 338.5,296.5C 342.555,296.824 346.555,296.491 350.5,295.5C 351.853,294.476 352.52,293.143 352.5,291.5C 361.218,289.366 369.552,286.033 377.5,281.5C 378.522,280.646 379.355,279.646 380,278.5C 383.509,279.318 386.676,280.651 389.5,282.5C 389.5,284.167 389.5,285.833 389.5,287.5C 390.5,287.5 391.5,287.5 392.5,287.5C 392.682,292.794 393.182,292.794 394,287.5C 395.677,290.287 397.177,293.12 398.5,296C 397.552,296.483 396.552,296.649 395.5,296.5C 395.5,297.833 395.5,299.167 395.5,300.5C 397.167,300.5 398.833,300.5 400.5,300.5C 400.343,299.127 400.51,297.793 401,296.5C 403.163,301.073 403.663,305.74 402.5,310.5C 405.523,310.105 406.523,311.105 405.5,313.5C 406.603,313.998 407.603,314.331 408.5,314.5C 407.954,315.772 407.621,317.106 407.5,318.5C 408.892,321.703 409.559,325.036 409.5,328.5C 413.488,330.111 415.821,333.111 416.5,337.5C 418.5,337.5 420.5,337.5 422.5,337.5C 422.784,340.632 423.617,343.632 425,346.5C 426.018,345.294 426.518,345.627 426.5,347.5C 423.743,350.124 424.41,351.457 428.5,351.5C 428.649,352.552 428.483,353.552 428,354.5C 427.282,353.549 426.449,353.383 425.5,354C 427.158,355.663 429.158,356.496 431.5,356.5C 431.34,358.199 431.506,359.866 432,361.5C 432.278,360.584 432.778,359.918 433.5,359.5C 434.149,372.265 434.815,384.932 435.5,397.5C 435.928,410.497 436.262,423.497 436.5,436.5C 417.851,435.414 399.184,435.247 380.5,436C 379.944,436.383 379.611,436.883 379.5,437.5C 353.5,437.5 327.5,437.5 301.5,437.5C 298.695,436.681 295.695,436.181 292.5,436C 251.329,435.751 210.162,435.251 169,434.5C 162.324,434.661 155.657,434.994 149,435.5C 146.833,435.167 144.667,434.833 142.5,434.5C 144.193,431.114 145.86,427.78 147.5,424.5C 148.833,422.5 150.5,420.833 152.5,419.5C 172.585,397.086 191.919,374.086 210.5,350.5C 212.692,351.275 214.692,352.109 216.5,353C 220.227,350.367 222.56,346.867 223.5,342.5C 225.167,342.5 226.833,342.5 228.5,342.5C 228.148,337.994 228.815,333.661 230.5,329.5C 229.315,328.147 227.981,326.98 226.5,326C 228.797,324.84 228.464,323.84 225.5,323C 226.308,322.692 226.975,322.192 227.5,321.5C 223.304,317.851 219.804,318.184 217,322.5C 215.254,320.543 213.088,319.543 210.5,319.5C 211.167,315.5 209.5,313.833 205.5,314.5C 205.5,313.167 205.5,311.833 205.5,310.5C 204.5,310.5 203.5,310.5 202.5,310.5C 202.784,308.585 202.451,306.919 201.5,305.5C 200.79,300.853 201.124,296.186 202.5,291.5C 205.434,286.608 209.101,282.275 213.5,278.5C 214.386,277.675 214.719,276.675 214.5,275.5C 218.167,274.5 220.5,272.167 221.5,268.5C 222.5,268.5 223.5,268.5 224.5,268.5C 224.5,267.167 224.5,265.833 224.5,264.5C 225.833,264.5 227.167,264.5 228.5,264.5C 228.5,262.833 228.5,261.167 228.5,259.5C 230.167,259.5 231.833,259.5 233.5,259.5C 233.5,258.167 233.5,256.833 233.5,255.5C 234.833,255.5 236.167,255.5 237.5,255.5C 237.5,253.833 237.5,252.167 237.5,250.5C 242.573,250.787 246.907,249.12 250.5,245.5C 251.429,244.311 251.762,242.978 251.5,241.5C 253.167,241.5 254.833,241.5 256.5,241.5C 256.5,239.833 256.5,238.167 256.5,236.5C 254.833,236.5 253.167,236.5 251.5,236.5C 251.5,235.167 251.5,233.833 251.5,232.5C 253.167,232.5 254.833,232.5 256.5,232.5C 256.5,230.833 256.5,229.167 256.5,227.5C 257.833,227.5 259.167,227.5 260.5,227.5C 260.5,226.167 260.5,224.833 260.5,223.5C 263.5,223.5 266.5,223.5 269.5,223.5C 269.5,221.833 269.5,220.167 269.5,218.5C 271.167,218.5 272.833,218.5 274.5,218.5C 274.5,216.833 274.5,215.167 274.5,213.5C 278.468,213.652 282.135,212.652 285.5,210.5C 288.016,203.962 292.683,200.629 299.5,200.5C 300.75,195.567 303.417,194.567 307.5,197.5C 308.736,196.754 310.07,196.421 311.5,196.5C 311.5,198.167 311.5,199.833 311.5,201.5C 312.833,201.5 314.167,201.5 315.5,201.5 Z"/></g>
<g><path style="opacity:1" fill="#e1e1e1" d="M -0.5,-0.5 C 0.833333,-0.5 2.16667,-0.5 3.5,-0.5C 2.87833,0.626561 2.04499,1.62656 1,2.5C 0.169124,36.6691 0.335791,70.6691 1.5,104.5C 0.351749,118.759 0.185083,133.092 1,147.5C 1.38258,148.056 1.88258,148.389 2.5,148.5C 2.51715,150.565 2.85048,152.565 3.5,154.5C 2.5,154.5 1.5,154.5 0.5,154.5C 0.166993,325.667 0.500326,496.667 1.5,667.5C 0.380855,682.801 0.214188,698.135 1,713.5C 1.38258,714.056 1.88258,714.389 2.5,714.5C 2.5,715.833 2.5,717.167 2.5,718.5C 1.16686,744.158 0.500197,770.158 0.5,796.5C 0.508585,823.208 0.841918,849.875 1.5,876.5C 0.833333,876.167 0.166667,875.833 -0.5,875.5C -0.5,583.5 -0.5,291.5 -0.5,-0.5 Z"/></g>
<g><path style="opacity:1" fill="#5d5f62" d="M 878.5,200.5 C 878.5,203.5 878.5,206.5 878.5,209.5C 877.833,210.167 877.167,210.833 876.5,211.5C 876.116,207.511 876.783,203.845 878.5,200.5 Z"/></g>
<g><path style="opacity:1" fill="#fefefe" d="M 878.5,209.5 C 878.5,411.833 878.5,614.167 878.5,816.5C 856.441,773.383 834.608,730.05 813,686.5C 805,673.173 793.5,664.34 778.5,660C 765.532,658.84 752.532,658.173 739.5,658C 696.504,615.004 653.671,572.171 611,529.5C 597.507,503.906 594.507,477.239 602,449.5C 607.525,442.86 614.691,439.027 623.5,438C 644.87,437.931 666.203,437.264 687.5,436C 705.819,430.84 722.486,422.507 737.5,411C 754.636,393.205 769.469,373.705 782,352.5C 785.078,348.915 788.578,345.915 792.5,343.5C 794.926,342.647 795.76,340.981 795,338.5C 794.329,337.748 793.496,337.414 792.5,337.5C 838.898,308.111 866.898,266.111 876.5,211.5C 877.167,210.833 877.833,210.167 878.5,209.5 Z"/></g>
<g><path style="opacity:1" fill="#070505" d="M 107.5,1.5 C 120.167,1.5 132.833,1.5 145.5,1.5C 154.115,2.57046 162.448,4.73712 170.5,8C 182.889,13.7269 194.223,21.0602 204.5,30C 270.279,95.7792 336.113,161.613 402,227.5C 406.069,232.06 409.902,236.726 413.5,241.5C 411.611,240.62 409.611,240.62 407.5,241.5C 407.66,239.801 407.494,238.134 407,236.5C 406.667,237.5 406.333,238.5 406,239.5C 404.989,238.663 403.822,238.33 402.5,238.5C 402.5,239.5 402.5,240.5 402.5,241.5C 401.448,241.351 400.448,241.517 399.5,242C 396.592,246.913 392.925,251.247 388.5,255C 389.025,255.692 389.692,256.192 390.5,256.5C 392.371,255.233 394.204,255.233 396,256.5C 396.249,255.376 396.749,254.376 397.5,253.5C 399.667,254.792 402,255.625 404.5,256C 400.299,258.672 400.633,259.839 405.5,259.5C 405.383,261.484 406.05,263.15 407.5,264.5C 406.609,265.59 405.609,265.59 404.5,264.5C 403.068,267.327 402.401,270.327 402.5,273.5C 403.5,273.5 404.5,273.5 405.5,273.5C 406.25,279.732 407.917,285.732 410.5,291.5C 411.487,294.768 411.82,298.102 411.5,301.5C 415.965,302.734 418.299,305.734 418.5,310.5C 419.5,310.5 420.5,310.5 421.5,310.5C 422.451,313.942 423.785,317.275 425.5,320.5C 425.379,321.894 425.046,323.228 424.5,324.5C 425.631,325.604 426.465,325.271 427,323.5C 428.983,325.984 431.15,328.317 433.5,330.5C 435.036,335.391 434.703,340.058 432.5,344.5C 433.875,347.547 436.208,348.88 439.5,348.5C 439.073,351.788 439.74,354.788 441.5,357.5C 439.777,359.868 439.11,362.534 439.5,365.5C 438.5,365.5 437.5,365.5 436.5,365.5C 435.596,376.135 435.263,386.802 435.5,397.5C 434.815,384.932 434.149,372.265 433.5,359.5C 433.455,345.521 428.288,333.854 418,324.5C 411.438,312.045 405.438,299.378 400,286.5C 394.78,277.282 388.78,268.616 382,260.5C 313.5,192 245,123.5 176.5,55C 154.544,35.2649 129.544,30.2649 101.5,40C 95.9307,42.5667 90.5974,45.5667 85.5,49C 71.2613,61.2368 58.428,74.7368 47,89.5C 33.3515,113.575 33.0182,137.908 46,162.5C 48.6153,166.783 51.6153,170.783 55,174.5C 109.333,228.833 163.667,283.167 218,337.5C 218.667,338.5 218.667,339.5 218,340.5C 215.283,343.71 212.783,347.044 210.5,350.5C 191.919,374.086 172.585,397.086 152.5,419.5C 154.954,415.85 156.787,411.85 158,407.5C 165.308,383.898 167.142,359.898 163.5,335.5C 118.514,291.014 73.6803,246.347 29,201.5C 25.7147,196.546 22.048,191.88 18,187.5C 10.9782,177.457 6.14483,166.457 3.5,154.5C 2.85048,152.565 2.51715,150.565 2.5,148.5C 1.21412,133.501 1.21412,118.501 2.5,103.5C 4.84823,90.4743 9.68156,78.4743 17,67.5C 28.3971,53.0982 40.8971,39.5982 54.5,27C 70.0947,14.2027 87.7613,5.70274 107.5,1.5 Z"/></g>
<g><path style="opacity:1" fill="#f44040" d="M 433.5,359.5 C 432.778,359.918 432.278,360.584 432,361.5C 431.506,359.866 431.34,358.199 431.5,356.5C 429.158,356.496 427.158,355.663 425.5,354C 426.449,353.383 427.282,353.549 428,354.5C 428.483,353.552 428.649,352.552 428.5,351.5C 424.41,351.457 423.743,350.124 426.5,347.5C 426.518,345.627 426.018,345.294 425,346.5C 423.617,343.632 422.784,340.632 422.5,337.5C 420.5,337.5 418.5,337.5 416.5,337.5C 415.821,333.111 413.488,330.111 409.5,328.5C 409.559,325.036 408.892,321.703 407.5,318.5C 407.621,317.106 407.954,315.772 408.5,314.5C 407.603,314.331 406.603,313.998 405.5,313.5C 406.523,311.105 405.523,310.105 402.5,310.5C 403.663,305.74 403.163,301.073 401,296.5C 400.51,297.793 400.343,299.127 400.5,300.5C 398.833,300.5 397.167,300.5 395.5,300.5C 395.5,299.167 395.5,297.833 395.5,296.5C 396.552,296.649 397.552,296.483 398.5,296C 397.177,293.12 395.677,290.287 394,287.5C 393.182,292.794 392.682,292.794 392.5,287.5C 391.5,287.5 390.5,287.5 389.5,287.5C 389.5,285.833 389.5,284.167 389.5,282.5C 390.586,282.38 391.253,281.713 391.5,280.5C 390.213,278.84 388.88,277.174 387.5,275.5C 386.614,276.325 386.281,277.325 386.5,278.5C 384.801,278.66 383.134,278.494 381.5,278C 382.38,276.644 382.714,275.144 382.5,273.5C 380.857,273.52 379.524,272.853 378.5,271.5C 376.057,273.055 373.39,273.722 370.5,273.5C 370.5,270.5 370.5,267.5 370.5,264.5C 369.167,264.5 367.833,264.5 366.5,264.5C 366.5,263.5 366.5,262.5 366.5,261.5C 365.5,261.5 364.5,261.5 363.5,261.5C 363.719,262.675 363.386,263.675 362.5,264.5C 362.167,263.833 361.833,263.167 361.5,262.5C 362.937,260.423 363.604,258.09 363.5,255.5C 362.699,253.958 362.366,252.292 362.5,250.5C 356.441,250.364 353.108,247.364 352.5,241.5C 348.206,241.553 345.206,239.553 343.5,235.5C 342.675,234.614 341.675,234.281 340.5,234.5C 340.5,232.833 340.5,231.167 340.5,229.5C 338.897,229.688 337.563,229.188 336.5,228C 338.107,226.951 338.773,225.451 338.5,223.5C 334.5,224.167 332.833,222.5 333.5,218.5C 331.833,218.5 330.167,218.5 328.5,218.5C 328.5,217.167 328.5,215.833 328.5,214.5C 325.873,213.908 323.206,213.575 320.5,213.5C 320.5,212.167 320.5,210.833 320.5,209.5C 318.833,209.5 317.167,209.5 315.5,209.5C 315.5,206.833 315.5,204.167 315.5,201.5C 314.791,200.596 313.791,200.263 312.5,200.5C 312.739,198.533 312.406,196.699 311.5,195C 309.671,194.727 308.171,193.893 307,192.5C 306.481,193.516 305.647,194.182 304.5,194.5C 300.182,194.543 297.849,192.543 297.5,188.5C 292.705,188.71 290.038,186.376 289.5,181.5C 286.301,179.429 284.634,176.429 284.5,172.5C 283.735,171.388 282.735,170.721 281.5,170.5C 279.409,170.682 277.409,170.348 275.5,169.5C 274.081,165.914 273.081,162.247 272.5,158.5C 270.712,158.785 269.045,158.452 267.5,157.5C 267.833,156.833 268.167,156.167 268.5,155.5C 265.402,153.624 262.736,151.291 260.5,148.5C 257.644,146.956 254.644,145.956 251.5,145.5C 251.5,144.167 251.5,142.833 251.5,141.5C 247.107,141.543 246.774,141.043 250.5,140C 247.854,139.503 245.187,139.336 242.5,139.5C 242.5,138.5 242.5,137.5 242.5,136.5C 240.833,136.5 239.167,136.5 237.5,136.5C 236.444,130.748 235.111,125.082 233.5,119.5C 227.501,119.461 221.834,120.128 216.5,121.5C 213.074,112.688 210.408,103.688 208.5,94.5C 206.833,94.5 205.167,94.5 203.5,94.5C 203.265,90.1965 200.931,88.5298 196.5,89.5C 195.941,86.0869 194.274,83.2535 191.5,81C 189.866,80.5065 188.199,80.3398 186.5,80.5C 186.322,77.7835 185.822,75.1168 185,72.5C 183.644,71.6198 182.144,71.2865 180.5,71.5C 180.5,70.1667 180.5,68.8333 180.5,67.5C 178.167,67.5 175.833,67.5 173.5,67.5C 173.5,65.8333 173.5,64.1667 173.5,62.5C 170.449,62.5462 167.782,61.5462 165.5,59.5C 164.571,58.3112 164.238,56.9778 164.5,55.5C 163.022,55.762 161.689,55.4287 160.5,54.5C 157.73,52.4393 155.396,49.9393 153.5,47C 152.101,46.4054 150.768,46.5721 149.5,47.5C 147.868,46.7026 146.368,45.7026 145,44.5C 143.667,45.1667 142.333,45.8333 141,46.5C 137.476,44.6105 135.643,45.6105 135.5,49.5C 134.5,49.5 133.5,49.5 132.5,49.5C 132.5,50.8333 132.5,52.1667 132.5,53.5C 129.5,53.5 126.5,53.5 123.5,53.5C 122.685,52.5707 121.852,51.5707 121,50.5C 120,54.5 119,54.5 118,50.5C 116.684,53.028 115.517,53.028 114.5,50.5C 112.884,51.1152 111.551,52.1152 110.5,53.5C 110.167,52.8333 109.833,52.1667 109.5,51.5C 111.106,49.4096 111.606,47.0762 111,44.5C 107.45,43.3941 103.95,42.5608 100.5,42C 101.624,42.2492 102.624,42.7492 103.5,43.5C 102.738,43.9106 101.738,44.0773 100.5,44C 97.5215,45.8477 97.1882,47.8477 99.5,50C 96.2939,54.1155 92.6272,56.9489 88.5,58.5C 87.7189,59.7287 87.2189,61.062 87,62.5C 83.7153,61.795 81.2153,63.1283 79.5,66.5C 80.0253,67.1924 80.6919,67.6924 81.5,68C 79.8333,68.3333 78.1667,68.6667 76.5,69C 75.6243,70.5848 74.2909,71.5848 72.5,72C 71.6198,73.3561 71.2865,74.8561 71.5,76.5C 68.8602,76.954 66.5268,78.1207 64.5,80C 63.6634,81.0113 63.33,82.1779 63.5,83.5C 60.2819,83.6509 59.9485,84.4842 62.5,86C 57.8442,89.5006 54.8442,94.0006 53.5,99.5C 52.5,99.5 51.5,99.5 50.5,99.5C 50.2962,102.518 49.9629,105.518 49.5,108.5C 52.5,108.5 55.5,108.5 58.5,108.5C 58.5,110.167 58.5,111.833 58.5,113.5C 60.1667,113.5 61.8333,113.5 63.5,113.5C 63.5,114.833 63.5,116.167 63.5,117.5C 63.1788,119.048 62.1788,119.715 60.5,119.5C 59.551,121.737 58.8844,124.071 58.5,126.5C 57.1667,126.5 55.8333,126.5 54.5,126.5C 54.5,128.167 54.5,129.833 54.5,131.5C 53.5,131.5 52.5,131.5 51.5,131.5C 51.2934,134.239 50.2934,136.573 48.5,138.5C 49.394,140.938 49.394,143.438 48.5,146C 48.9564,150.058 50.9564,151.224 54.5,149.5C 54.5,152.833 54.5,156.167 54.5,159.5C 55.8333,159.5 57.1667,159.5 58.5,159.5C 59.4058,162.436 60.0725,165.436 60.5,168.5C 61.8221,168.67 62.9887,168.337 64,167.5C 64,168.833 64,170.167 64,171.5C 65.9964,171.996 67.6631,172.996 69,174.5C 69,172.5 69,170.5 69,168.5C 70.3811,170.635 71.3811,172.968 72,175.5C 73.7337,176.249 75.567,176.749 77.5,177C 75.7444,177.202 74.0777,177.702 72.5,178.5C 75.4411,179.522 78.4411,180.355 81.5,181C 80.8333,181.333 80.1667,181.667 79.5,182C 81.3404,184.669 83.3404,187.169 85.5,189.5C 86.2508,188.624 86.7508,187.624 87,186.5C 86.8162,189.797 88.3162,191.797 91.5,192.5C 90.5,193.167 89.5,193.833 88.5,194.5C 89.5217,195.354 90.3551,196.354 91,197.5C 91.3333,196.833 91.6667,196.167 92,195.5C 93.9606,201.932 95.1273,201.932 95.5,195.5C 97.1667,195.5 98.8333,195.5 100.5,195.5C 100.5,197.167 100.5,198.833 100.5,200.5C 101.833,200.5 103.167,200.5 104.5,200.5C 104.5,201.833 104.5,203.167 104.5,204.5C 107.833,204.5 111.167,204.5 114.5,204.5C 114.5,203.167 114.5,201.833 114.5,200.5C 118.833,200.5 123.167,200.5 127.5,200.5C 127.5,201.833 127.5,203.167 127.5,204.5C 125.833,204.5 124.167,204.5 122.5,204.5C 122.5,205.833 122.5,207.167 122.5,208.5C 121.167,208.5 119.833,208.5 118.5,208.5C 118.788,211.397 119.455,214.23 120.5,217C 120.26,219.016 119.926,221.016 119.5,223C 120.954,225.407 122.288,227.907 123.5,230.5C 124.729,231.281 126.062,231.781 127.5,232C 126.833,232.333 126.167,232.667 125.5,233C 127.804,233.895 130.138,234.729 132.5,235.5C 131.975,236.192 131.308,236.692 130.5,237C 134.114,238.32 137.781,239.487 141.5,240.5C 140.975,241.192 140.308,241.692 139.5,242C 141.024,244.358 143.024,246.191 145.5,247.5C 147.552,249.796 148.552,252.463 148.5,255.5C 149.5,255.5 150.5,255.5 151.5,255.5C 151.231,257.429 151.731,259.095 153,260.5C 155.041,259.577 157.208,259.244 159.5,259.5C 159.5,262.167 159.5,264.833 159.5,267.5C 160.93,267.421 162.264,267.754 163.5,268.5C 165.043,271.39 167.376,273.057 170.5,273.5C 170.5,275.167 170.5,276.833 170.5,278.5C 171.5,278.5 172.5,278.5 173.5,278.5C 173.5,279.833 173.5,281.167 173.5,282.5C 178.417,282.704 183.083,281.704 187.5,279.5C 188.853,278.476 189.52,277.143 189.5,275.5C 193.318,273.987 197.318,273.32 201.5,273.5C 201.157,271.517 201.824,270.183 203.5,269.5C 205.176,270.183 205.843,271.517 205.5,273.5C 206.833,273.5 208.167,273.5 209.5,273.5C 209.5,274.833 209.5,276.167 209.5,277.5C 208.167,277.5 206.833,277.5 205.5,277.5C 205.5,279.167 205.5,280.833 205.5,282.5C 204.167,282.5 202.833,282.5 201.5,282.5C 201.5,284.167 201.5,285.833 201.5,287.5C 198.318,288.311 196.652,290.477 196.5,294C 197.821,297.039 198.654,300.206 199,303.5C 199.417,304.756 200.25,305.423 201.5,305.5C 202.451,306.919 202.784,308.585 202.5,310.5C 203.5,310.5 204.5,310.5 205.5,310.5C 205.5,311.833 205.5,313.167 205.5,314.5C 209.5,313.833 211.167,315.5 210.5,319.5C 213.088,319.543 215.254,320.543 217,322.5C 219.804,318.184 223.304,317.851 227.5,321.5C 226.975,322.192 226.308,322.692 225.5,323C 228.464,323.84 228.797,324.84 226.5,326C 227.981,326.98 229.315,328.147 230.5,329.5C 228.815,333.661 228.148,337.994 228.5,342.5C 226.833,342.5 225.167,342.5 223.5,342.5C 222.56,346.867 220.227,350.367 216.5,353C 214.692,352.109 212.692,351.275 210.5,350.5C 212.783,347.044 215.283,343.71 218,340.5C 218.667,339.5 218.667,338.5 218,337.5C 163.667,283.167 109.333,228.833 55,174.5C 51.6153,170.783 48.6153,166.783 46,162.5C 33.0182,137.908 33.3515,113.575 47,89.5C 58.428,74.7368 71.2613,61.2368 85.5,49C 90.5974,45.5667 95.9307,42.5667 101.5,40C 129.544,30.2649 154.544,35.2649 176.5,55C 245,123.5 313.5,192 382,260.5C 388.78,268.616 394.78,277.282 400,286.5C 405.438,299.378 411.438,312.045 418,324.5C 428.288,333.854 433.455,345.521 433.5,359.5 Z"/></g>
<g><path style="opacity:1" fill="#fc3f3d" d="M 281.5,170.5 C 282.735,170.721 283.735,171.388 284.5,172.5C 284.634,176.429 286.301,179.429 289.5,181.5C 290.038,186.376 292.705,188.71 297.5,188.5C 297.849,192.543 300.182,194.543 304.5,194.5C 305.647,194.182 306.481,193.516 307,192.5C 308.171,193.893 309.671,194.727 311.5,195C 312.406,196.699 312.739,198.533 312.5,200.5C 313.791,200.263 314.791,200.596 315.5,201.5C 314.167,201.5 312.833,201.5 311.5,201.5C 311.5,199.833 311.5,198.167 311.5,196.5C 310.07,196.421 308.736,196.754 307.5,197.5C 303.417,194.567 300.75,195.567 299.5,200.5C 292.683,200.629 288.016,203.962 285.5,210.5C 282.135,212.652 278.468,213.652 274.5,213.5C 274.5,215.167 274.5,216.833 274.5,218.5C 272.833,218.5 271.167,218.5 269.5,218.5C 269.5,220.167 269.5,221.833 269.5,223.5C 266.5,223.5 263.5,223.5 260.5,223.5C 260.5,224.833 260.5,226.167 260.5,227.5C 259.167,227.5 257.833,227.5 256.5,227.5C 256.5,229.167 256.5,230.833 256.5,232.5C 254.833,232.5 253.167,232.5 251.5,232.5C 251.5,233.833 251.5,235.167 251.5,236.5C 253.167,236.5 254.833,236.5 256.5,236.5C 256.5,238.167 256.5,239.833 256.5,241.5C 254.833,241.5 253.167,241.5 251.5,241.5C 251.762,242.978 251.429,244.311 250.5,245.5C 246.907,249.12 242.573,250.787 237.5,250.5C 237.5,252.167 237.5,253.833 237.5,255.5C 236.167,255.5 234.833,255.5 233.5,255.5C 233.5,256.833 233.5,258.167 233.5,259.5C 231.833,259.5 230.167,259.5 228.5,259.5C 228.5,261.167 228.5,262.833 228.5,264.5C 227.167,264.5 225.833,264.5 224.5,264.5C 224.5,265.833 224.5,267.167 224.5,268.5C 223.5,268.5 222.5,268.5 221.5,268.5C 220.5,272.167 218.167,274.5 214.5,275.5C 214.719,276.675 214.386,277.675 213.5,278.5C 209.101,282.275 205.434,286.608 202.5,291.5C 201.124,296.186 200.79,300.853 201.5,305.5C 200.25,305.423 199.417,304.756 199,303.5C 198.654,300.206 197.821,297.039 196.5,294C 196.652,290.477 198.318,288.311 201.5,287.5C 201.5,285.833 201.5,284.167 201.5,282.5C 202.833,282.5 204.167,282.5 205.5,282.5C 205.5,280.833 205.5,279.167 205.5,277.5C 206.833,277.5 208.167,277.5 209.5,277.5C 209.5,276.167 209.5,274.833 209.5,273.5C 208.167,273.5 206.833,273.5 205.5,273.5C 205.843,271.517 205.176,270.183 203.5,269.5C 204.67,267.721 206.336,266.721 208.5,266.5C 209.547,260.119 213.214,256.453 219.5,255.5C 219.011,251.513 220.678,249.18 224.5,248.5C 226.167,244.167 229.167,241.167 233.5,239.5C 233.5,238.5 233.5,237.5 233.5,236.5C 234.833,236.5 236.167,236.5 237.5,236.5C 237.5,235.167 237.5,233.833 237.5,232.5C 239.167,232.5 240.833,232.5 242.5,232.5C 242.5,230.833 242.5,229.167 242.5,227.5C 244.288,227.785 245.955,227.452 247.5,226.5C 249.785,224.405 251.785,222.072 253.5,219.5C 254.325,218.614 255.325,218.281 256.5,218.5C 256.938,214.092 254.938,212.425 250.5,213.5C 250.34,211.801 250.506,210.134 251,208.5C 252.731,212.335 254.065,212.002 255,207.5C 255.71,208.973 256.876,209.64 258.5,209.5C 258.579,208.07 258.246,206.736 257.5,205.5C 258.192,200.731 260.692,199.398 265,201.5C 266.689,198.731 269.189,197.064 272.5,196.5C 273.914,193.787 275.247,191.12 276.5,188.5C 278.288,188.785 279.955,188.452 281.5,187.5C 279.896,186.397 278.896,184.897 278.5,183C 279.695,181.467 279.695,179.967 278.5,178.5C 279.172,175.656 280.172,172.99 281.5,170.5 Z"/></g>
<g><path style="opacity:1" fill="#fc3d3f" d="M 123.5,53.5 C 123.5,56.5 123.5,59.5 123.5,62.5C 121.833,62.5 120.167,62.5 118.5,62.5C 118.116,64.9294 117.449,67.2627 116.5,69.5C 112.206,69.4466 109.206,71.4466 107.5,75.5C 105.488,77.3414 103.155,78.3414 100.5,78.5C 100.989,82.487 99.322,84.8203 95.5,85.5C 95.5,87.1667 95.5,88.8333 95.5,90.5C 94.1667,90.5 92.8333,90.5 91.5,90.5C 91.5,91.8333 91.5,93.1667 91.5,94.5C 89.8333,94.5 88.1667,94.5 86.5,94.5C 86.5,95.5 86.5,96.5 86.5,97.5C 82.3245,97.9276 78.9912,99.9276 76.5,103.5C 75.5481,105.045 75.2148,106.712 75.5,108.5C 71.8333,109.5 69.5,111.833 68.5,115.5C 66.6776,115.831 65.0109,116.498 63.5,117.5C 63.5,116.167 63.5,114.833 63.5,113.5C 61.8333,113.5 60.1667,113.5 58.5,113.5C 58.5,111.833 58.5,110.167 58.5,108.5C 55.5,108.5 52.5,108.5 49.5,108.5C 49.9629,105.518 50.2962,102.518 50.5,99.5C 51.5,99.5 52.5,99.5 53.5,99.5C 54.8442,94.0006 57.8442,89.5006 62.5,86C 59.9485,84.4842 60.2819,83.6509 63.5,83.5C 63.33,82.1779 63.6634,81.0113 64.5,80C 66.5268,78.1207 68.8602,76.954 71.5,76.5C 71.2865,74.8561 71.6198,73.3561 72.5,72C 74.2909,71.5848 75.6243,70.5848 76.5,69C 78.1667,68.6667 79.8333,68.3333 81.5,68C 80.6919,67.6924 80.0253,67.1924 79.5,66.5C 81.2153,63.1283 83.7153,61.795 87,62.5C 87.2189,61.062 87.7189,59.7287 88.5,58.5C 92.6272,56.9489 96.2939,54.1155 99.5,50C 97.1882,47.8477 97.5215,45.8477 100.5,44C 101.738,44.0773 102.738,43.9106 103.5,43.5C 102.624,42.7492 101.624,42.2492 100.5,42C 103.95,42.5608 107.45,43.3941 111,44.5C 111.606,47.0762 111.106,49.4096 109.5,51.5C 109.833,52.1667 110.167,52.8333 110.5,53.5C 111.551,52.1152 112.884,51.1152 114.5,50.5C 115.517,53.028 116.684,53.028 118,50.5C 119,54.5 120,54.5 121,50.5C 121.852,51.5707 122.685,52.5707 123.5,53.5 Z"/></g>
<g><path style="opacity:1" fill="#fe3c3a" d="M 281.5,170.5 C 280.172,172.99 279.172,175.656 278.5,178.5C 279.695,179.967 279.695,181.467 278.5,183C 278.896,184.897 279.896,186.397 281.5,187.5C 279.955,188.452 278.288,188.785 276.5,188.5C 275.247,191.12 273.914,193.787 272.5,196.5C 269.189,197.064 266.689,198.731 265,201.5C 260.692,199.398 258.192,200.731 257.5,205.5C 258.246,206.736 258.579,208.07 258.5,209.5C 256.876,209.64 255.71,208.973 255,207.5C 254.065,212.002 252.731,212.335 251,208.5C 250.506,210.134 250.34,211.801 250.5,213.5C 254.938,212.425 256.938,214.092 256.5,218.5C 255.325,218.281 254.325,218.614 253.5,219.5C 251.785,222.072 249.785,224.405 247.5,226.5C 245.955,227.452 244.288,227.785 242.5,227.5C 242.5,229.167 242.5,230.833 242.5,232.5C 240.833,232.5 239.167,232.5 237.5,232.5C 237.5,233.833 237.5,235.167 237.5,236.5C 236.167,236.5 234.833,236.5 233.5,236.5C 233.5,237.5 233.5,238.5 233.5,239.5C 229.167,241.167 226.167,244.167 224.5,248.5C 220.678,249.18 219.011,251.513 219.5,255.5C 213.214,256.453 209.547,260.119 208.5,266.5C 206.336,266.721 204.67,267.721 203.5,269.5C 201.824,270.183 201.157,271.517 201.5,273.5C 197.318,273.32 193.318,273.987 189.5,275.5C 189.52,277.143 188.853,278.476 187.5,279.5C 183.083,281.704 178.417,282.704 173.5,282.5C 173.5,281.167 173.5,279.833 173.5,278.5C 172.5,278.5 171.5,278.5 170.5,278.5C 170.5,276.833 170.5,275.167 170.5,273.5C 167.376,273.057 165.043,271.39 163.5,268.5C 162.264,267.754 160.93,267.421 159.5,267.5C 159.5,264.833 159.5,262.167 159.5,259.5C 157.208,259.244 155.041,259.577 153,260.5C 151.731,259.095 151.231,257.429 151.5,255.5C 150.5,255.5 149.5,255.5 148.5,255.5C 148.552,252.463 147.552,249.796 145.5,247.5C 143.024,246.191 141.024,244.358 139.5,242C 140.308,241.692 140.975,241.192 141.5,240.5C 137.781,239.487 134.114,238.32 130.5,237C 131.308,236.692 131.975,236.192 132.5,235.5C 130.138,234.729 127.804,233.895 125.5,233C 126.167,232.667 126.833,232.333 127.5,232C 126.062,231.781 124.729,231.281 123.5,230.5C 122.288,227.907 120.954,225.407 119.5,223C 119.926,221.016 120.26,219.016 120.5,217C 119.455,214.23 118.788,211.397 118.5,208.5C 119.833,208.5 121.167,208.5 122.5,208.5C 122.5,207.167 122.5,205.833 122.5,204.5C 124.167,204.5 125.833,204.5 127.5,204.5C 127.5,203.167 127.5,201.833 127.5,200.5C 123.167,200.5 118.833,200.5 114.5,200.5C 114.5,201.833 114.5,203.167 114.5,204.5C 111.167,204.5 107.833,204.5 104.5,204.5C 104.5,203.167 104.5,201.833 104.5,200.5C 103.167,200.5 101.833,200.5 100.5,200.5C 100.5,198.833 100.5,197.167 100.5,195.5C 98.8333,195.5 97.1667,195.5 95.5,195.5C 95.1273,201.932 93.9606,201.932 92,195.5C 91.6667,196.167 91.3333,196.833 91,197.5C 90.3551,196.354 89.5217,195.354 88.5,194.5C 89.5,193.833 90.5,193.167 91.5,192.5C 88.3162,191.797 86.8162,189.797 87,186.5C 86.7508,187.624 86.2508,188.624 85.5,189.5C 83.3404,187.169 81.3404,184.669 79.5,182C 80.1667,181.667 80.8333,181.333 81.5,181C 78.4411,180.355 75.4411,179.522 72.5,178.5C 74.0777,177.702 75.7444,177.202 77.5,177C 75.567,176.749 73.7337,176.249 72,175.5C 71.3811,172.968 70.3811,170.635 69,168.5C 69,170.5 69,172.5 69,174.5C 67.6631,172.996 65.9964,171.996 64,171.5C 64,170.167 64,168.833 64,167.5C 62.9887,168.337 61.8221,168.67 60.5,168.5C 60.0725,165.436 59.4058,162.436 58.5,159.5C 57.1667,159.5 55.8333,159.5 54.5,159.5C 54.5,156.167 54.5,152.833 54.5,149.5C 50.9564,151.224 48.9564,150.058 48.5,146C 49.394,143.438 49.394,140.938 48.5,138.5C 50.2934,136.573 51.2934,134.239 51.5,131.5C 52.5,131.5 53.5,131.5 54.5,131.5C 54.5,129.833 54.5,128.167 54.5,126.5C 55.8333,126.5 57.1667,126.5 58.5,126.5C 58.8844,124.071 59.551,121.737 60.5,119.5C 62.1788,119.715 63.1788,119.048 63.5,117.5C 65.0109,116.498 66.6776,115.831 68.5,115.5C 69.5,111.833 71.8333,109.5 75.5,108.5C 75.2148,106.712 75.5481,105.045 76.5,103.5C 78.9912,99.9276 82.3245,97.9276 86.5,97.5C 86.5,96.5 86.5,95.5 86.5,94.5C 88.1667,94.5 89.8333,94.5 91.5,94.5C 91.5,93.1667 91.5,91.8333 91.5,90.5C 92.8333,90.5 94.1667,90.5 95.5,90.5C 95.5,88.8333 95.5,87.1667 95.5,85.5C 99.322,84.8203 100.989,82.487 100.5,78.5C 103.155,78.3414 105.488,77.3414 107.5,75.5C 109.206,71.4466 112.206,69.4466 116.5,69.5C 117.449,67.2627 118.116,64.9294 118.5,62.5C 120.167,62.5 121.833,62.5 123.5,62.5C 123.5,59.5 123.5,56.5 123.5,53.5C 126.5,53.5 129.5,53.5 132.5,53.5C 132.5,52.1667 132.5,50.8333 132.5,49.5C 133.5,49.5 134.5,49.5 135.5,49.5C 135.643,45.6105 137.476,44.6105 141,46.5C 142.333,45.8333 143.667,45.1667 145,44.5C 146.368,45.7026 147.868,46.7026 149.5,47.5C 150.768,46.5721 152.101,46.4054 153.5,47C 155.396,49.9393 157.73,52.4393 160.5,54.5C 161.689,55.4287 163.022,55.762 164.5,55.5C 164.238,56.9778 164.571,58.3112 165.5,59.5C 167.782,61.5462 170.449,62.5462 173.5,62.5C 173.5,64.1667 173.5,65.8333 173.5,67.5C 175.833,67.5 178.167,67.5 180.5,67.5C 180.5,68.8333 180.5,70.1667 180.5,71.5C 182.144,71.2865 183.644,71.6198 185,72.5C 185.822,75.1168 186.322,77.7835 186.5,80.5C 188.199,80.3398 189.866,80.5065 191.5,81C 194.274,83.2535 195.941,86.0869 196.5,89.5C 200.931,88.5298 203.265,90.1965 203.5,94.5C 205.167,94.5 206.833,94.5 208.5,94.5C 210.408,103.688 213.074,112.688 216.5,121.5C 221.834,120.128 227.501,119.461 233.5,119.5C 235.111,125.082 236.444,130.748 237.5,136.5C 239.167,136.5 240.833,136.5 242.5,136.5C 242.5,137.5 242.5,138.5 242.5,139.5C 245.187,139.336 247.854,139.503 250.5,140C 246.774,141.043 247.107,141.543 251.5,141.5C 251.5,142.833 251.5,144.167 251.5,145.5C 254.644,145.956 257.644,146.956 260.5,148.5C 262.736,151.291 265.402,153.624 268.5,155.5C 268.167,156.167 267.833,156.833 267.5,157.5C 269.045,158.452 270.712,158.785 272.5,158.5C 273.081,162.247 274.081,165.914 275.5,169.5C 277.409,170.348 279.409,170.682 281.5,170.5 Z"/></g>
<g><path style="opacity:1" fill="#fc3e3f" d="M 363.5,255.5 C 363.604,258.09 362.937,260.423 361.5,262.5C 361.833,263.167 362.167,263.833 362.5,264.5C 363.386,263.675 363.719,262.675 363.5,261.5C 364.5,261.5 365.5,261.5 366.5,261.5C 366.5,262.5 366.5,263.5 366.5,264.5C 367.833,264.5 369.167,264.5 370.5,264.5C 370.5,267.5 370.5,270.5 370.5,273.5C 373.39,273.722 376.057,273.055 378.5,271.5C 379.524,272.853 380.857,273.52 382.5,273.5C 382.714,275.144 382.38,276.644 381.5,278C 383.134,278.494 384.801,278.66 386.5,278.5C 386.281,277.325 386.614,276.325 387.5,275.5C 388.88,277.174 390.213,278.84 391.5,280.5C 391.253,281.713 390.586,282.38 389.5,282.5C 386.676,280.651 383.509,279.318 380,278.5C 379.355,279.646 378.522,280.646 377.5,281.5C 369.552,286.033 361.218,289.366 352.5,291.5C 352.52,293.143 351.853,294.476 350.5,295.5C 346.555,296.491 342.555,296.824 338.5,296.5C 338.5,294.833 338.5,293.167 338.5,291.5C 340.167,291.5 341.833,291.5 343.5,291.5C 344.25,286.007 345.583,280.674 347.5,275.5C 350.025,274.36 352.692,273.693 355.5,273.5C 355.66,271.801 355.494,270.134 355,268.5C 354.751,269.624 354.251,270.624 353.5,271.5C 352.516,268.572 352.183,265.572 352.5,262.5C 353.833,262.5 355.167,262.5 356.5,262.5C 356.332,258.267 357.665,257.267 360.5,259.5C 361.057,257.668 362.057,256.335 363.5,255.5 Z"/></g>
<g><path style="opacity:1" fill="#a9b2b8" d="M 608.5,403.5 C 600.287,406.523 591.954,409.689 583.5,413C 577.977,415.518 572.977,418.852 568.5,423C 568.833,423.333 569.167,423.667 569.5,424C 566.763,428.531 564.596,433.364 563,438.5C 559.952,451.456 557.119,464.456 554.5,477.5C 555.082,480.802 555.415,484.135 555.5,487.5C 555.458,494.61 554.792,499.61 553.5,502.5C 552.167,502.5 550.833,502.5 549.5,502.5C 549.341,499.845 548.341,497.512 546.5,495.5C 543.006,497.998 540.672,501.332 539.5,505.5C 538.281,504.737 537.281,503.737 536.5,502.5C 535.614,503.325 535.281,504.325 535.5,505.5C 530.247,506.71 524.913,507.71 519.5,508.5C 517.713,510.476 515.546,511.809 513,512.5C 512.51,513.793 512.343,515.127 512.5,516.5C 514.199,516.34 515.866,516.506 517.5,517C 513.991,517.422 510.657,518.422 507.5,520C 504.849,522.805 502.849,525.971 501.5,529.5C 498.112,525.751 494.945,521.751 492,517.5C 491.595,515.225 492.095,513.225 493.5,511.5C 494.21,513.746 494.71,516.08 495,518.5C 495.873,511.73 498.207,505.397 502,499.5C 502.109,495.052 503.443,491.052 506,487.5C 506.73,477.642 507.564,467.809 508.5,458C 508.01,453.881 508.343,449.714 509.5,445.5C 508.109,435.337 507.442,425.004 507.5,414.5C 507.335,405.924 508.002,397.424 509.5,389C 507.582,377.318 506.915,365.651 507.5,354C 507.137,350.055 506.304,346.222 505,342.5C 504.506,344.134 504.34,345.801 504.5,347.5C 503.521,344.375 503.187,341.042 503.5,337.5C 510.987,337.618 518.653,337.618 526.5,337.5C 526.5,336.167 526.5,334.833 526.5,333.5C 528.167,333.5 529.833,333.5 531.5,333.5C 531.5,334.833 531.5,336.167 531.5,337.5C 534.5,337.5 537.5,337.5 540.5,337.5C 540.434,340.915 539.268,343.915 537,346.5C 536.29,345.027 535.124,344.36 533.5,344.5C 532.833,348.5 532.167,348.5 531.5,344.5C 529.723,344.786 528.056,345.453 526.5,346.5C 525.328,346.081 524.328,345.415 523.5,344.5C 522.614,345.325 522.281,346.325 522.5,347.5C 525.167,347.5 527.833,347.5 530.5,347.5C 530.336,350.187 530.503,352.854 531,355.5C 532.356,356.38 533.856,356.714 535.5,356.5C 535.5,362.5 535.5,368.5 535.5,374.5C 534.167,374.5 532.833,374.5 531.5,374.5C 531.177,378.226 531.511,381.893 532.5,385.5C 535.485,380.545 537.151,375.212 537.5,369.5C 540.833,371.833 544.167,374.167 547.5,376.5C 547.5,374.833 547.5,373.167 547.5,371.5C 548.833,371.5 550.167,371.5 551.5,371.5C 551.5,367.167 551.5,362.833 551.5,358.5C 552.5,358.5 553.5,358.5 554.5,358.5C 554.5,360.833 554.5,363.167 554.5,365.5C 561.053,364.932 567.387,365.599 573.5,367.5C 575.868,365.777 578.534,365.11 581.5,365.5C 581.5,362.5 581.5,359.5 581.5,356.5C 583.167,356.5 584.833,356.5 586.5,356.5C 586.5,368.5 586.5,380.5 586.5,392.5C 585.5,392.5 584.5,392.5 583.5,392.5C 583.771,394.821 583.104,396.821 581.5,398.5C 582.333,398.833 583.167,399.167 584,399.5C 586.059,398.382 588.226,397.715 590.5,397.5C 590.5,398.833 590.5,400.167 590.5,401.5C 592.833,401.5 595.167,401.5 597.5,401.5C 597.5,402.5 597.5,403.5 597.5,404.5C 600.272,404.78 602.772,404.113 605,402.5C 606.011,403.337 607.178,403.67 608.5,403.5 Z"/></g>
<g><path style="opacity:1" fill="#424242" d="M 792.5,337.5 C 793.496,337.414 794.329,337.748 795,338.5C 795.76,340.981 794.926,342.647 792.5,343.5C 792.5,341.5 792.5,339.5 792.5,337.5 Z"/></g>
<g><path style="opacity:1" fill="#fe3937" d="M 270.5,342.5 C 277.582,345.093 284.915,346.426 292.5,346.5C 292.5,348.167 292.5,349.833 292.5,351.5C 298.519,350.982 304.352,351.649 310,353.5C 313.276,351.773 316.776,351.106 320.5,351.5C 320.5,353.167 320.5,354.833 320.5,356.5C 326.954,356.36 333.288,356.36 339.5,356.5C 342.523,353.789 344.523,350.456 345.5,346.5C 348.694,346.73 351.694,346.064 354.5,344.5C 361.352,346.344 368.352,347.01 375.5,346.5C 375.36,348.124 376.027,349.29 377.5,350C 376.833,350.333 376.167,350.667 375.5,351C 381.491,351.499 387.491,351.666 393.5,351.5C 393.5,353.167 393.5,354.833 393.5,356.5C 395.288,356.215 396.955,356.548 398.5,357.5C 396.599,358.545 394.933,359.878 393.5,361.5C 391.955,362.452 390.288,362.785 388.5,362.5C 388.5,363.5 388.5,364.5 388.5,365.5C 385.5,365.5 382.5,365.5 379.5,365.5C 379.5,366.833 379.5,368.167 379.5,369.5C 381.167,369.5 382.833,369.5 384.5,369.5C 384.5,372.5 384.5,375.5 384.5,378.5C 386.167,378.5 387.833,378.5 389.5,378.5C 389.5,377.167 389.5,375.833 389.5,374.5C 390.833,374.5 392.167,374.5 393.5,374.5C 393.5,377.5 393.5,380.5 393.5,383.5C 395.167,383.5 396.833,383.5 398.5,383.5C 398.192,385.924 398.526,388.257 399.5,390.5C 400.894,388.016 402.394,388.016 404,390.5C 406.256,388.915 408.756,388.248 411.5,388.5C 411.5,392.833 411.5,397.167 411.5,401.5C 410.167,401.5 408.833,401.5 407.5,401.5C 407.5,406.167 407.5,410.833 407.5,415.5C 408.978,415.238 410.311,415.571 411.5,416.5C 407.016,417.028 402.683,416.195 398.5,414C 393.845,413.501 389.179,413.334 384.5,413.5C 384.5,412.5 384.5,411.5 384.5,410.5C 382.167,410.5 379.833,410.5 377.5,410.5C 377.5,409.167 377.5,407.833 377.5,406.5C 374.428,406.183 371.428,406.516 368.5,407.5C 367.272,409.321 365.606,410.321 363.5,410.5C 362.551,412.737 361.884,415.071 361.5,417.5C 357.65,416.925 354.65,418.259 352.5,421.5C 348.858,422.156 345.525,423.489 342.5,425.5C 339.916,424.607 337.249,424.274 334.5,424.5C 334.5,423.167 334.5,421.833 334.5,420.5C 332.833,420.5 331.167,420.5 329.5,420.5C 329.5,418.833 329.5,417.167 329.5,415.5C 327.833,415.5 326.167,415.5 324.5,415.5C 324.5,414.167 324.5,412.833 324.5,411.5C 321.5,411.5 318.5,411.5 315.5,411.5C 315.5,409.833 315.5,408.167 315.5,406.5C 313.833,406.5 312.167,406.5 310.5,406.5C 310.64,404.876 309.973,403.71 308.5,403C 308.833,402.667 309.167,402.333 309.5,402C 308.167,401.667 306.833,401.333 305.5,401C 306.554,399.612 306.72,398.112 306,396.5C 305.174,398.405 304.007,398.739 302.5,397.5C 303.5,396.667 304.5,395.833 305.5,395C 305.167,394.833 304.833,394.667 304.5,394.5C 303.167,395.833 301.833,395.833 300.5,394.5C 299.749,395.376 299.249,396.376 299,397.5C 297.333,397.5 295.667,397.5 294,397.5C 291.916,399.972 292.083,402.305 294.5,404.5C 294.167,405.167 293.833,405.833 293.5,406.5C 292.27,403.951 290.77,401.617 289,399.5C 285.397,401.424 281.564,402.424 277.5,402.5C 275.933,405.331 276.599,407.665 279.5,409.5C 279.192,410.308 278.692,410.975 278,411.5C 276.209,410.088 275.042,408.255 274.5,406C 273.128,405.598 271.795,405.098 270.5,404.5C 263.382,409.594 255.382,411.594 246.5,410.5C 246.5,409.167 246.5,407.833 246.5,406.5C 243.109,406.297 240.109,407.297 237.5,409.5C 240.157,410.259 242.823,410.926 245.5,411.5C 246.747,413.006 246.747,414.506 245.5,416C 246.308,416.308 246.975,416.808 247.5,417.5C 246.626,419.747 246.292,422.08 246.5,424.5C 247.833,424.5 249.167,424.5 250.5,424.5C 251.032,429.797 251.866,429.797 253,424.5C 254.418,426.363 256.251,426.863 258.5,426C 261.386,425.394 263.552,423.894 265,421.5C 266.619,422.083 268.452,422.083 270.5,421.5C 271.148,419.851 272.148,418.518 273.5,417.5C 275.895,420.154 277.895,419.821 279.5,416.5C 278.754,415.264 278.421,413.93 278.5,412.5C 281.47,412.746 282.803,414.412 282.5,417.5C 283.5,417.5 284.5,417.5 285.5,417.5C 285.5,418.5 285.5,419.5 285.5,420.5C 286.5,420.5 287.5,420.5 288.5,420.5C 288.724,424.515 287.557,425.181 285,422.5C 283.403,423.885 281.57,424.551 279.5,424.5C 279.5,426.167 279.5,427.833 279.5,429.5C 280.978,429.238 282.311,429.571 283.5,430.5C 281.402,431.45 279.235,431.45 277,430.5C 274.276,430.803 271.776,431.636 269.5,433C 271.866,433.562 274.199,433.396 276.5,432.5C 277.938,432.719 279.271,433.219 280.5,434C 250.813,434.819 224.479,434.652 201.5,433.5C 201.67,432.178 201.337,431.011 200.5,430C 192.626,431.183 188.293,431.017 187.5,429.5C 187.5,427.833 187.5,426.167 187.5,424.5C 190.187,424.659 192.52,423.825 194.5,422C 193.833,421.667 193.167,421.333 192.5,421C 184.841,420.5 177.174,420.334 169.5,420.5C 170.158,424.677 168.492,426.177 164.5,425C 166.174,422.492 167.174,419.658 167.5,416.5C 166.584,414.216 167.584,413.049 170.5,413C 170.982,411.992 171.148,410.825 171,409.5C 172.609,408.853 174.109,408.02 175.5,407C 175.167,406.667 174.833,406.333 174.5,406C 177.994,402.839 180.328,399.006 181.5,394.5C 183.179,392.896 185.179,392.229 187.5,392.5C 187.5,391.167 187.5,389.833 187.5,388.5C 189.833,388.5 192.167,388.5 194.5,388.5C 195.776,385.664 196.442,382.664 196.5,379.5C 198.167,379.5 199.833,379.5 201.5,379.5C 201.5,380.833 201.5,382.167 201.5,383.5C 202.833,383.5 204.167,383.5 205.5,383.5C 205.5,381.833 205.5,380.167 205.5,378.5C 207.167,378.5 208.833,378.5 210.5,378.5C 210.5,377.167 210.5,375.833 210.5,374.5C 209.167,374.5 207.833,374.5 206.5,374.5C 204.833,370.167 206.167,368.833 210.5,370.5C 210.5,367.167 210.5,363.833 210.5,360.5C 212.167,360.5 213.833,360.5 215.5,360.5C 215.569,357.916 216.735,355.916 219,354.5C 219.333,354.833 219.667,355.167 220,355.5C 220.739,354.426 221.739,353.759 223,353.5C 226.677,355.058 230.511,356.058 234.5,356.5C 235.167,356.167 235.833,355.833 236.5,355.5C 238.129,358.266 238.795,361.266 238.5,364.5C 241.482,364.963 244.482,365.296 247.5,365.5C 247.5,363.833 247.5,362.167 247.5,360.5C 248.833,360.5 250.167,360.5 251.5,360.5C 251.5,359.167 251.5,357.833 251.5,356.5C 253.167,356.5 254.833,356.5 256.5,356.5C 256.5,354.833 256.5,353.167 256.5,351.5C 257.833,351.5 259.167,351.5 260.5,351.5C 260.5,349.833 260.5,348.167 260.5,346.5C 263.833,346.5 267.167,346.5 270.5,346.5C 270.5,345.167 270.5,343.833 270.5,342.5 Z"/></g>
<g><path style="opacity:1" fill="#a9b1b8" d="M 357.5,529.5 C 364.692,538.188 373.025,545.688 382.5,552C 389.662,554.306 396.995,555.973 404.5,557C 392.333,569.167 380.167,581.333 368,593.5C 360.199,602.786 353.032,612.453 346.5,622.5C 345.603,621.402 344.77,621.402 344,622.5C 343.51,623.793 343.343,625.127 343.5,626.5C 342.022,626.238 340.689,626.571 339.5,627.5C 337.802,631.517 336.135,635.517 334.5,639.5C 333.662,639.158 333.328,638.492 333.5,637.5C 333.5,633.833 333.5,630.167 333.5,626.5C 335.167,626.5 336.833,626.5 338.5,626.5C 338.5,624.833 338.5,623.167 338.5,621.5C 340.167,621.5 341.833,621.5 343.5,621.5C 343.5,616.167 343.5,610.833 343.5,605.5C 344.675,605.719 345.675,605.386 346.5,604.5C 347.348,602.591 347.682,600.591 347.5,598.5C 345.801,598.66 344.134,598.494 342.5,598C 343.444,595.281 343.777,592.448 343.5,589.5C 341.833,589.5 340.167,589.5 338.5,589.5C 338.5,588.167 338.5,586.833 338.5,585.5C 343.875,585.172 349.208,585.505 354.5,586.5C 352.207,588.552 349.707,589.219 347,588.5C 346.654,590.218 346.154,591.885 345.5,593.5C 346.274,594.711 347.107,594.711 348,593.5C 348.507,594.996 348.007,596.163 346.5,597C 347.766,597.309 348.933,597.809 350,598.5C 351.58,604.938 352.413,604.938 352.5,598.5C 353.978,598.762 355.311,598.429 356.5,597.5C 355.359,596.575 355.359,595.741 356.5,595C 354.009,594.374 354.009,593.541 356.5,592.5C 353.299,588.797 353.965,587.797 358.5,589.5C 359.429,588.311 359.762,586.978 359.5,585.5C 363.167,585.5 366.833,585.5 370.5,585.5C 370.617,583.516 369.95,581.85 368.5,580.5C 367.41,581.391 367.41,582.391 368.5,583.5C 368.154,584.696 367.654,584.696 367,583.5C 366.503,581.19 366.337,578.857 366.5,576.5C 367.833,576.5 369.167,576.5 370.5,576.5C 370.5,574.833 370.5,573.167 370.5,571.5C 372.167,571.5 373.833,571.5 375.5,571.5C 375.5,569.833 375.5,568.167 375.5,566.5C 373.833,566.5 372.167,566.5 370.5,566.5C 370.5,563.5 370.5,560.5 370.5,557.5C 368.833,557.5 367.167,557.5 365.5,557.5C 365.5,556.167 365.5,554.833 365.5,553.5C 364.167,553.5 362.833,553.5 361.5,553.5C 361.5,550.5 361.5,547.5 361.5,544.5C 358.5,544.5 355.5,544.5 352.5,544.5C 352.5,542.833 352.5,541.167 352.5,539.5C 347.833,539.5 343.167,539.5 338.5,539.5C 338.5,541.167 338.5,542.833 338.5,544.5C 334.5,545.167 332.833,543.5 333.5,539.5C 332.167,539.5 330.833,539.5 329.5,539.5C 329.5,537.833 329.5,536.167 329.5,534.5C 327.833,534.5 326.167,534.5 324.5,534.5C 324.5,533.167 324.5,531.833 324.5,530.5C 321.5,530.5 318.5,530.5 315.5,530.5C 315.5,531.833 315.5,533.167 315.5,534.5C 314.167,534.5 312.833,534.5 311.5,534.5C 311.5,536.167 311.5,537.833 311.5,539.5C 306.833,539.5 302.167,539.5 297.5,539.5C 297.5,544.167 297.5,548.833 297.5,553.5C 295.856,553.714 294.356,553.38 293,552.5C 292.502,549.518 292.335,546.518 292.5,543.5C 291.167,543.5 289.833,543.5 288.5,543.5C 288.5,542.167 288.5,540.833 288.5,539.5C 286.396,539.201 284.396,539.534 282.5,540.5C 283.246,541.736 283.579,543.07 283.5,544.5C 282.167,544.5 280.833,544.5 279.5,544.5C 279.5,545.833 279.5,547.167 279.5,548.5C 277.833,548.5 276.167,548.5 274.5,548.5C 274.5,546.833 274.5,545.167 274.5,543.5C 275.833,543.5 277.167,543.5 278.5,543.5C 278.5,542.167 278.5,540.833 278.5,539.5C 275.833,539.5 273.167,539.5 270.5,539.5C 270.5,540.833 270.5,542.167 270.5,543.5C 267.167,543.833 263.833,544.167 260.5,544.5C 260.5,545.833 260.5,547.167 260.5,548.5C 262.167,548.5 263.833,548.5 265.5,548.5C 265.5,550.167 265.5,551.833 265.5,553.5C 263.833,553.5 262.167,553.5 260.5,553.5C 260.5,554.833 260.5,556.167 260.5,557.5C 259.167,557.5 257.833,557.5 256.5,557.5C 256.5,556.167 256.5,554.833 256.5,553.5C 248.167,553.5 239.833,553.5 231.5,553.5C 232.941,550.618 234.608,550.285 236.5,552.5C 237.386,551.675 237.719,550.675 237.5,549.5C 238.93,549.421 240.264,549.754 241.5,550.5C 244.206,548.129 246.539,545.463 248.5,542.5C 249.167,542.833 249.833,543.167 250.5,543.5C 252.198,541.468 254.198,539.802 256.5,538.5C 257.783,535.365 257.783,532.365 256.5,529.5C 255.081,528.549 253.415,528.216 251.5,528.5C 252.376,524.418 254.043,520.751 256.5,517.5C 256.461,518.756 256.961,519.756 258,520.5C 263.716,511.832 268.216,502.998 271.5,494C 278.05,481.756 284.217,469.256 290,456.5C 293.677,451.534 298.51,450.201 304.5,452.5C 304.5,451.5 304.5,450.5 304.5,449.5C 303.325,449.719 302.325,449.386 301.5,448.5C 313.815,447.501 326.149,447.168 338.5,447.5C 338.281,446.325 338.614,445.325 339.5,444.5C 348.405,446.248 357.405,447.248 366.5,447.5C 366.5,452.167 366.5,456.833 366.5,461.5C 363.5,461.5 360.5,461.5 357.5,461.5C 357.27,472.712 357.27,483.878 357.5,495C 357.257,498.003 355.59,499.17 352.5,498.5C 352.5,501.5 352.5,504.5 352.5,507.5C 350.833,507.5 349.167,507.5 347.5,507.5C 347.762,508.978 347.429,510.311 346.5,511.5C 343.916,512.393 341.249,512.726 338.5,512.5C 339.406,515.436 340.072,518.436 340.5,521.5C 342.737,522.449 345.071,523.116 347.5,523.5C 347.5,525.833 347.5,528.167 347.5,530.5C 349.766,530.859 351.599,530.192 353,528.5C 353.006,531.275 354.173,533.275 356.5,534.5C 357.167,534.333 357.833,534.167 358.5,534C 356.534,532.653 356.201,531.153 357.5,529.5 Z"/></g>
<g><path style="opacity:1" fill="#aeb2b5" d="M 301.5,437.5 C 327.5,437.5 353.5,437.5 379.5,437.5C 370.76,465.122 363.26,493.122 357,521.5C 356.278,524.261 356.445,526.927 357.5,529.5C 356.201,531.153 356.534,532.653 358.5,534C 357.833,534.167 357.167,534.333 356.5,534.5C 354.173,533.275 353.006,531.275 353,528.5C 351.599,530.192 349.766,530.859 347.5,530.5C 347.5,528.167 347.5,525.833 347.5,523.5C 345.071,523.116 342.737,522.449 340.5,521.5C 340.072,518.436 339.406,515.436 338.5,512.5C 341.249,512.726 343.916,512.393 346.5,511.5C 347.429,510.311 347.762,508.978 347.5,507.5C 349.167,507.5 350.833,507.5 352.5,507.5C 352.5,504.5 352.5,501.5 352.5,498.5C 355.59,499.17 357.257,498.003 357.5,495C 357.27,483.878 357.27,472.712 357.5,461.5C 360.5,461.5 363.5,461.5 366.5,461.5C 366.5,456.833 366.5,452.167 366.5,447.5C 357.405,447.248 348.405,446.248 339.5,444.5C 338.614,445.325 338.281,446.325 338.5,447.5C 326.149,447.168 313.815,447.501 301.5,448.5C 302.325,449.386 303.325,449.719 304.5,449.5C 304.5,450.5 304.5,451.5 304.5,452.5C 298.51,450.201 293.677,451.534 290,456.5C 284.217,469.256 278.05,481.756 271.5,494C 268.216,502.998 263.716,511.832 258,520.5C 256.961,519.756 256.461,518.756 256.5,517.5C 266.62,495.26 277.786,473.593 290,452.5C 293.369,447.071 297.202,442.071 301.5,437.5 Z"/></g>
<g><path style="opacity:1" fill="#b6bcbf" d="M 493.5,511.5 C 496.313,503.865 499.146,496.198 502,488.5C 502.93,483.201 503.597,477.867 504,472.5C 504.5,430.835 504.667,389.168 504.5,347.5C 504.34,345.801 504.506,344.134 505,342.5C 506.304,346.222 507.137,350.055 507.5,354C 506.915,365.651 507.582,377.318 509.5,389C 508.002,397.424 507.335,405.924 507.5,414.5C 507.442,425.004 508.109,435.337 509.5,445.5C 508.343,449.714 508.01,453.881 508.5,458C 507.564,467.809 506.73,477.642 506,487.5C 503.443,491.052 502.109,495.052 502,499.5C 498.207,505.397 495.873,511.73 495,518.5C 494.71,516.08 494.21,513.746 493.5,511.5 Z"/></g>
<g><path style="opacity:1" fill="#b0b7be" d="M 619.5,370.5 C 617.955,381.485 616.455,392.485 615,403.5C 600.27,407.117 586.77,413.284 574.5,422C 572.273,424.564 570.439,427.397 569,430.5C 558.406,463.138 555.573,496.471 560.5,530.5C 554.023,528.377 547.356,526.71 540.5,525.5C 538.377,526.312 536.21,526.978 534,527.5C 526.829,527.49 519.329,527.323 511.5,527C 508.714,528.501 506.047,530.001 503.5,531.5C 502.5,531.167 501.833,530.5 501.5,529.5C 502.849,525.971 504.849,522.805 507.5,520C 510.657,518.422 513.991,517.422 517.5,517C 515.866,516.506 514.199,516.34 512.5,516.5C 512.343,515.127 512.51,513.793 513,512.5C 515.546,511.809 517.713,510.476 519.5,508.5C 524.913,507.71 530.247,506.71 535.5,505.5C 535.281,504.325 535.614,503.325 536.5,502.5C 537.281,503.737 538.281,504.737 539.5,505.5C 540.672,501.332 543.006,497.998 546.5,495.5C 548.341,497.512 549.341,499.845 549.5,502.5C 550.833,502.5 552.167,502.5 553.5,502.5C 554.792,499.61 555.458,494.61 555.5,487.5C 555.415,484.135 555.082,480.802 554.5,477.5C 557.119,464.456 559.952,451.456 563,438.5C 564.596,433.364 566.763,428.531 569.5,424C 569.167,423.667 568.833,423.333 568.5,423C 572.977,418.852 577.977,415.518 583.5,413C 591.954,409.689 600.287,406.523 608.5,403.5C 610.911,403.863 612.411,402.863 613,400.5C 614.017,390.472 615.184,380.472 616.5,370.5C 617.5,370.5 618.5,370.5 619.5,370.5 Z"/></g>
<g><path style="opacity:1" fill="#c2bfbd" d="M 111.5,521.5 C 111.435,523.696 110.768,525.696 109.5,527.5C 107.026,528.32 104.693,529.32 102.5,530.5C 101.833,523.833 104.833,520.833 111.5,521.5 Z"/></g>
<g><path style="opacity:1" fill="#a6b3bb" d="M 333.5,637.5 C 332.141,638.007 331.141,639.007 330.5,640.5C 329.833,637.167 329.167,633.833 328.5,630.5C 327.548,632.045 327.215,633.712 327.5,635.5C 326.325,635.281 325.325,635.614 324.5,636.5C 321.106,641.651 316.439,644.984 310.5,646.5C 310.307,650.449 309.807,650.449 309,646.5C 308.517,647.448 308.351,648.448 308.5,649.5C 307.167,649.5 305.833,649.5 304.5,649.5C 304.5,652.5 304.5,655.5 304.5,658.5C 302.394,658.679 300.728,659.679 299.5,661.5C 298.313,665.27 296.979,668.936 295.5,672.5C 294.5,672.5 293.5,672.5 292.5,672.5C 292.428,677.991 291.428,683.325 289.5,688.5C 288.504,694.463 288.171,700.463 288.5,706.5C 286.833,706.5 285.167,706.5 283.5,706.5C 283.48,708.143 284.147,709.476 285.5,710.5C 282.292,713.049 280.959,716.383 281.5,720.5C 278.428,720.817 275.428,720.484 272.5,719.5C 273.853,718.476 274.52,717.143 274.5,715.5C 272.226,715.285 270.059,714.618 268,713.5C 266.635,713.844 265.468,714.511 264.5,715.5C 262.833,712.833 261.167,712.833 259.5,715.5C 258.833,714.833 258.167,714.167 257.5,713.5C 254.5,715.167 252.167,717.5 250.5,720.5C 247.599,716.462 243.932,713.462 239.5,711.5C 239.5,710.5 239.5,709.5 239.5,708.5C 238.022,708.762 236.689,708.429 235.5,707.5C 234.787,703.071 232.787,699.404 229.5,696.5C 231.647,693.668 231.647,691.001 229.5,688.5C 228.509,684.555 228.176,680.555 228.5,676.5C 227.167,676.5 225.833,676.5 224.5,676.5C 224.5,675.167 224.5,673.833 224.5,672.5C 222.876,672.36 221.71,673.027 221,674.5C 220.365,673.034 219.531,671.7 218.5,670.5C 219.891,668.064 219.391,667.398 217,668.5C 215.105,666.223 213.938,663.556 213.5,660.5C 212.572,658.665 211.406,658.332 210,659.5C 209.82,657.512 209.986,655.512 210.5,653.5C 209.5,653.5 208.5,653.5 207.5,653.5C 207.649,654.552 207.483,655.552 207,656.5C 206.178,654.212 205.511,651.878 205,649.5C 204,649.5 203,649.5 202,649.5C 201.506,647.866 201.34,646.199 201.5,644.5C 199.409,644.318 197.409,644.652 195.5,645.5C 194.597,643.143 192.93,641.643 190.5,641C 191.731,639.817 191.731,638.651 190.5,637.5C 189.232,638.428 187.899,638.595 186.5,638C 182.549,636.002 178.549,634.002 174.5,632C 173.833,631 173.167,630 172.5,629C 168.25,626.626 164.084,624.126 160,621.5C 159.439,622.022 158.772,622.355 158,622.5C 151.854,618.206 145.354,617.539 138.5,620.5C 137.914,620.291 137.414,619.957 137,619.5C 133.422,622.069 129.588,624.236 125.5,626C 123.19,626.497 120.857,626.663 118.5,626.5C 119.244,629.95 117.91,631.616 114.5,631.5C 114.5,632.833 114.5,634.167 114.5,635.5C 111.654,636.095 108.654,636.095 105.5,635.5C 105.579,636.93 105.246,638.264 104.5,639.5C 100.739,642.203 96.7387,644.536 92.5,646.5C 91.6143,647.325 91.281,648.325 91.5,649.5C 90.448,649.351 89.448,649.517 88.5,650C 81.4627,654.748 74.296,659.248 67,663.5C 67.4866,661.956 67.9866,660.29 68.5,658.5C 65.5,658.5 62.5,658.5 59.5,658.5C 59.5,656.833 59.5,655.167 59.5,653.5C 57.712,653.785 56.0453,653.452 54.5,652.5C 57.1667,651.167 57.1667,649.833 54.5,648.5C 55.8532,647.476 56.5198,646.143 56.5,644.5C 58.143,644.52 59.4763,643.853 60.5,642.5C 61.8615,637.21 62.8615,631.877 63.5,626.5C 66.2048,626.62 66.8715,625.62 65.5,623.5C 66.325,622.614 67.325,622.281 68.5,622.5C 70.068,619.69 71.4013,616.69 72.5,613.5C 77.4604,610.885 80.4604,606.885 81.5,601.5C 83.1667,601.5 84.8333,601.5 86.5,601.5C 87.449,599.263 88.1156,596.929 88.5,594.5C 89.5,594.5 90.5,594.5 91.5,594.5C 92.7544,591.264 93.421,588.098 93.5,585C 98.747,585.395 104.08,585.562 109.5,585.5C 109.5,586.833 109.5,588.167 109.5,589.5C 129.5,589.5 149.5,589.5 169.5,589.5C 169.5,587.833 169.5,586.167 169.5,584.5C 166.167,584.5 162.833,584.5 159.5,584.5C 159.5,583.167 159.5,581.833 159.5,580.5C 162.898,580.82 166.232,580.487 169.5,579.5C 170.311,578.784 170.978,577.95 171.5,577C 170.115,575.403 169.449,573.57 169.5,571.5C 167.833,571.5 166.167,571.5 164.5,571.5C 164.5,569.833 164.5,568.167 164.5,566.5C 165.5,566.5 166.5,566.5 167.5,566.5C 167.833,570.5 168.167,570.5 168.5,566.5C 171.833,566.5 175.167,566.5 178.5,566.5C 178.5,565.167 178.5,563.833 178.5,562.5C 183.322,563.065 187.822,562.399 192,560.5C 192.839,561.624 194.006,562.291 195.5,562.5C 197.535,561.796 199.535,561.129 201.5,560.5C 201.238,559.022 201.571,557.689 202.5,556.5C 206.301,555.958 209.967,554.958 213.5,553.5C 214.429,554.689 214.762,556.022 214.5,557.5C 217.833,557.5 221.167,557.5 224.5,557.5C 224.5,556.167 224.5,554.833 224.5,553.5C 226.833,553.5 229.167,553.5 231.5,553.5C 239.833,553.5 248.167,553.5 256.5,553.5C 256.5,554.833 256.5,556.167 256.5,557.5C 257.833,557.5 259.167,557.5 260.5,557.5C 260.5,556.167 260.5,554.833 260.5,553.5C 262.167,553.5 263.833,553.5 265.5,553.5C 265.5,551.833 265.5,550.167 265.5,548.5C 263.833,548.5 262.167,548.5 260.5,548.5C 260.5,547.167 260.5,545.833 260.5,544.5C 263.833,544.167 267.167,543.833 270.5,543.5C 270.5,542.167 270.5,540.833 270.5,539.5C 273.167,539.5 275.833,539.5 278.5,539.5C 278.5,540.833 278.5,542.167 278.5,543.5C 277.167,543.5 275.833,543.5 274.5,543.5C 274.5,545.167 274.5,546.833 274.5,548.5C 276.167,548.5 277.833,548.5 279.5,548.5C 279.5,547.167 279.5,545.833 279.5,544.5C 280.833,544.5 282.167,544.5 283.5,544.5C 283.579,543.07 283.246,541.736 282.5,540.5C 284.396,539.534 286.396,539.201 288.5,539.5C 288.5,540.833 288.5,542.167 288.5,543.5C 289.833,543.5 291.167,543.5 292.5,543.5C 292.335,546.518 292.502,549.518 293,552.5C 294.356,553.38 295.856,553.714 297.5,553.5C 297.5,548.833 297.5,544.167 297.5,539.5C 302.167,539.5 306.833,539.5 311.5,539.5C 311.5,537.833 311.5,536.167 311.5,534.5C 312.833,534.5 314.167,534.5 315.5,534.5C 315.5,533.167 315.5,531.833 315.5,530.5C 318.5,530.5 321.5,530.5 324.5,530.5C 324.5,531.833 324.5,533.167 324.5,534.5C 326.167,534.5 327.833,534.5 329.5,534.5C 329.5,536.167 329.5,537.833 329.5,539.5C 330.833,539.5 332.167,539.5 333.5,539.5C 332.833,543.5 334.5,545.167 338.5,544.5C 338.5,542.833 338.5,541.167 338.5,539.5C 343.167,539.5 347.833,539.5 352.5,539.5C 352.5,541.167 352.5,542.833 352.5,544.5C 355.5,544.5 358.5,544.5 361.5,544.5C 361.5,547.5 361.5,550.5 361.5,553.5C 362.833,553.5 364.167,553.5 365.5,553.5C 365.5,554.833 365.5,556.167 365.5,557.5C 367.167,557.5 368.833,557.5 370.5,557.5C 370.5,560.5 370.5,563.5 370.5,566.5C 372.167,566.5 373.833,566.5 375.5,566.5C 375.5,568.167 375.5,569.833 375.5,571.5C 373.833,571.5 372.167,571.5 370.5,571.5C 370.5,573.167 370.5,574.833 370.5,576.5C 369.167,576.5 367.833,576.5 366.5,576.5C 366.337,578.857 366.503,581.19 367,583.5C 367.654,584.696 368.154,584.696 368.5,583.5C 367.41,582.391 367.41,581.391 368.5,580.5C 369.95,581.85 370.617,583.516 370.5,585.5C 366.833,585.5 363.167,585.5 359.5,585.5C 359.762,586.978 359.429,588.311 358.5,589.5C 353.965,587.797 353.299,588.797 356.5,592.5C 354.009,593.541 354.009,594.374 356.5,595C 355.359,595.741 355.359,596.575 356.5,597.5C 355.311,598.429 353.978,598.762 352.5,598.5C 352.413,604.938 351.58,604.938 350,598.5C 348.933,597.809 347.766,597.309 346.5,597C 348.007,596.163 348.507,594.996 348,593.5C 347.107,594.711 346.274,594.711 345.5,593.5C 346.154,591.885 346.654,590.218 347,588.5C 349.707,589.219 352.207,588.552 354.5,586.5C 349.208,585.505 343.875,585.172 338.5,585.5C 338.5,586.833 338.5,588.167 338.5,589.5C 340.167,589.5 341.833,589.5 343.5,589.5C 343.777,592.448 343.444,595.281 342.5,598C 344.134,598.494 345.801,598.66 347.5,598.5C 347.682,600.591 347.348,602.591 346.5,604.5C 345.675,605.386 344.675,605.719 343.5,605.5C 343.5,610.833 343.5,616.167 343.5,621.5C 341.833,621.5 340.167,621.5 338.5,621.5C 338.5,623.167 338.5,624.833 338.5,626.5C 336.833,626.5 335.167,626.5 333.5,626.5C 333.5,630.167 333.5,633.833 333.5,637.5 Z"/></g>
<g><path style="opacity:1" fill="#fefefe" d="M 815.5,875.5 C 714.169,876.833 612.502,877.5 510.5,877.5C 408.666,877.5 306.999,877.167 205.5,876.5C 229.556,872.427 251.889,863.927 272.5,851C 302.603,829.568 327.103,803.068 346,771.5C 361.116,739.59 368.45,705.923 368,670.5C 371.772,652.289 379.772,636.289 392,622.5C 416.175,598.124 440.342,573.791 464.5,549.5C 465.446,549.013 466.446,548.68 467.5,548.5C 531.084,611.75 594.751,675.084 658.5,738.5C 659.194,751.847 660.027,765.18 661,778.5C 666.263,795.195 676.763,807.362 692.5,815C 733.553,835.194 774.553,855.36 815.5,875.5 Z"/></g>
<g><path style="opacity:1" fill="#cbd0d6" d="M 560.5,530.5 C 587.861,558.194 615.194,585.86 642.5,613.5C 644.21,620.054 648.044,625.054 654,628.5C 655.694,630.24 656.861,632.24 657.5,634.5C 664.51,639.673 670.843,645.839 676.5,653C 682.734,659.24 689.234,665.073 696,670.5C 697.173,673.511 699.006,676.011 701.5,678C 701.167,678.333 700.833,678.667 700.5,679C 703.525,679.154 705.191,680.654 705.5,683.5C 710.359,685.437 714.193,688.77 717,693.5C 717.333,693.167 717.667,692.833 718,692.5C 719,694.833 720,697.167 721,699.5C 723.635,700.473 725.635,702.14 727,704.5C 727.333,703.833 727.667,703.167 728,702.5C 730.873,704.227 734.04,704.561 737.5,703.5C 740.672,703.449 743.672,704.116 746.5,705.5C 751.073,703.411 755.74,703.411 760.5,705.5C 765.397,704.236 770.064,704.902 774.5,707.5C 775.853,708.524 776.52,709.857 776.5,711.5C 778.942,711.354 779.609,712.187 778.5,714C 781.333,714.833 783.167,716.667 784,719.5C 784.333,722.833 784.667,726.167 785,729.5C 785.333,728.833 785.667,728.167 786,727.5C 787.908,730.206 788.741,733.206 788.5,736.5C 791.205,736.38 791.872,737.38 790.5,739.5C 794.54,743.27 797.873,747.604 800.5,752.5C 802.159,758.447 804.492,763.613 807.5,768C 805.258,770.119 804.925,772.619 806.5,775.5C 807.169,778.028 808.002,778.028 809,775.5C 809.333,777.833 809.667,780.167 810,782.5C 810.333,781.167 810.667,779.833 811,778.5C 812.688,779.325 812.855,780.325 811.5,781.5C 812.628,782.262 813.795,782.929 815,783.5C 816.036,786.753 816.703,790.086 817,793.5C 818.167,795 819.333,796.5 820.5,798C 820.043,798.414 819.709,798.914 819.5,799.5C 820.874,803.226 822.874,806.559 825.5,809.5C 826.452,811.045 826.785,812.712 826.5,814.5C 827.5,814.5 828.5,814.5 829.5,814.5C 829.108,817.146 829.108,819.646 829.5,822C 833.289,822.531 835.955,821.031 837.5,817.5C 838.465,818.721 838.298,820.054 837,821.5C 831.616,827.387 825.783,832.72 819.5,837.5C 803.439,829.137 787.439,820.804 771.5,812.5C 772.552,812.649 773.552,812.483 774.5,812C 768.009,808.922 761.675,805.588 755.5,802C 753.208,800.71 751.208,799.043 749.5,797C 739.683,792.785 730.016,788.285 720.5,783.5C 719.614,782.675 719.281,781.675 719.5,780.5C 718.167,780.5 716.833,780.5 715.5,780.5C 715.5,779.5 715.5,778.5 715.5,777.5C 714.07,777.579 712.736,777.246 711.5,776.5C 710.146,778.184 708.479,778.684 706.5,778C 703.894,776.062 702.061,773.562 701,770.5C 699.785,757.207 699.119,743.874 699,730.5C 698.667,729.167 698.333,727.833 698,726.5C 697.23,725.402 696.397,725.402 695.5,726.5C 694.208,723.263 692.374,720.263 690,717.5C 627.299,655.966 565.133,593.966 503.5,531.5C 506.047,530.001 508.714,528.501 511.5,527C 519.329,527.323 526.829,527.49 534,527.5C 536.21,526.978 538.377,526.312 540.5,525.5C 547.356,526.71 554.023,528.377 560.5,530.5 Z"/></g>
<g><path style="opacity:1" fill="#a9b5bc" d="M 256.5,529.5 C 257.783,532.365 257.783,535.365 256.5,538.5C 254.198,539.802 252.198,541.468 250.5,543.5C 249.833,543.167 249.167,542.833 248.5,542.5C 246.539,545.463 244.206,548.129 241.5,550.5C 240.264,549.754 238.93,549.421 237.5,549.5C 237.719,550.675 237.386,551.675 236.5,552.5C 234.608,550.285 232.941,550.618 231.5,553.5C 229.167,553.5 226.833,553.5 224.5,553.5C 224.5,554.833 224.5,556.167 224.5,557.5C 221.167,557.5 217.833,557.5 214.5,557.5C 214.762,556.022 214.429,554.689 213.5,553.5C 209.967,554.958 206.301,555.958 202.5,556.5C 201.571,557.689 201.238,559.022 201.5,560.5C 199.535,561.129 197.535,561.796 195.5,562.5C 194.006,562.291 192.839,561.624 192,560.5C 187.822,562.399 183.322,563.065 178.5,562.5C 178.5,563.833 178.5,565.167 178.5,566.5C 175.167,566.5 171.833,566.5 168.5,566.5C 168.167,570.5 167.833,570.5 167.5,566.5C 166.5,566.5 165.5,566.5 164.5,566.5C 164.5,568.167 164.5,569.833 164.5,571.5C 166.167,571.5 167.833,571.5 169.5,571.5C 169.449,573.57 170.115,575.403 171.5,577C 170.978,577.95 170.311,578.784 169.5,579.5C 166.232,580.487 162.898,580.82 159.5,580.5C 159.5,581.833 159.5,583.167 159.5,584.5C 162.833,584.5 166.167,584.5 169.5,584.5C 169.5,586.167 169.5,587.833 169.5,589.5C 149.5,589.5 129.5,589.5 109.5,589.5C 109.5,588.167 109.5,586.833 109.5,585.5C 104.08,585.562 98.747,585.395 93.5,585C 93.421,588.098 92.7544,591.264 91.5,594.5C 90.5,594.5 89.5,594.5 88.5,594.5C 88.1156,596.929 87.449,599.263 86.5,601.5C 84.8333,601.5 83.1667,601.5 81.5,601.5C 80.4604,606.885 77.4604,610.885 72.5,613.5C 71.4013,616.69 70.068,619.69 68.5,622.5C 67.325,622.281 66.325,622.614 65.5,623.5C 66.8715,625.62 66.2048,626.62 63.5,626.5C 62.8615,631.877 61.8615,637.21 60.5,642.5C 59.4763,643.853 58.143,644.52 56.5,644.5C 56.5198,646.143 55.8532,647.476 54.5,648.5C 57.1667,649.833 57.1667,651.167 54.5,652.5C 56.0453,653.452 57.712,653.785 59.5,653.5C 59.5,655.167 59.5,656.833 59.5,658.5C 62.5,658.5 65.5,658.5 68.5,658.5C 67.9866,660.29 67.4866,661.956 67,663.5C 74.296,659.248 81.4627,654.748 88.5,650C 89.448,649.517 90.448,649.351 91.5,649.5C 91.281,648.325 91.6143,647.325 92.5,646.5C 96.7387,644.536 100.739,642.203 104.5,639.5C 105.246,638.264 105.579,636.93 105.5,635.5C 108.654,636.095 111.654,636.095 114.5,635.5C 114.5,634.167 114.5,632.833 114.5,631.5C 117.91,631.616 119.244,629.95 118.5,626.5C 120.857,626.663 123.19,626.497 125.5,626C 129.588,624.236 133.422,622.069 137,619.5C 137.414,619.957 137.914,620.291 138.5,620.5C 145.354,617.539 151.854,618.206 158,622.5C 158.772,622.355 159.439,622.022 160,621.5C 164.084,624.126 168.25,626.626 172.5,629C 173.167,630 173.833,631 174.5,632C 178.549,634.002 182.549,636.002 186.5,638C 187.899,638.595 189.232,638.428 190.5,637.5C 191.731,638.651 191.731,639.817 190.5,641C 192.93,641.643 194.597,643.143 195.5,645.5C 197.409,644.652 199.409,644.318 201.5,644.5C 201.34,646.199 201.506,647.866 202,649.5C 203,649.5 204,649.5 205,649.5C 205.511,651.878 206.178,654.212 207,656.5C 207.483,655.552 207.649,654.552 207.5,653.5C 208.5,653.5 209.5,653.5 210.5,653.5C 209.986,655.512 209.82,657.512 210,659.5C 211.406,658.332 212.572,658.665 213.5,660.5C 213.938,663.556 215.105,666.223 217,668.5C 219.391,667.398 219.891,668.064 218.5,670.5C 219.531,671.7 220.365,673.034 221,674.5C 221.71,673.027 222.876,672.36 224.5,672.5C 224.5,673.833 224.5,675.167 224.5,676.5C 225.833,676.5 227.167,676.5 228.5,676.5C 228.176,680.555 228.509,684.555 229.5,688.5C 231.647,691.001 231.647,693.668 229.5,696.5C 232.787,699.404 234.787,703.071 235.5,707.5C 236.689,708.429 238.022,708.762 239.5,708.5C 239.5,709.5 239.5,710.5 239.5,711.5C 243.932,713.462 247.599,716.462 250.5,720.5C 252.167,717.5 254.5,715.167 257.5,713.5C 258.167,714.167 258.833,714.833 259.5,715.5C 261.167,712.833 262.833,712.833 264.5,715.5C 265.468,714.511 266.635,713.844 268,713.5C 270.059,714.618 272.226,715.285 274.5,715.5C 274.52,717.143 273.853,718.476 272.5,719.5C 275.428,720.484 278.428,720.817 281.5,720.5C 280.959,716.383 282.292,713.049 285.5,710.5C 284.147,709.476 283.48,708.143 283.5,706.5C 285.167,706.5 286.833,706.5 288.5,706.5C 288.171,700.463 288.504,694.463 289.5,688.5C 291.428,683.325 292.428,677.991 292.5,672.5C 293.5,672.5 294.5,672.5 295.5,672.5C 296.979,668.936 298.313,665.27 299.5,661.5C 300.728,659.679 302.394,658.679 304.5,658.5C 304.5,655.5 304.5,652.5 304.5,649.5C 305.833,649.5 307.167,649.5 308.5,649.5C 308.351,648.448 308.517,647.448 309,646.5C 309.807,650.449 310.307,650.449 310.5,646.5C 316.439,644.984 321.106,641.651 324.5,636.5C 325.325,635.614 326.325,635.281 327.5,635.5C 327.215,633.712 327.548,632.045 328.5,630.5C 329.167,633.833 329.833,637.167 330.5,640.5C 331.141,639.007 332.141,638.007 333.5,637.5C 333.328,638.492 333.662,639.158 334.5,639.5C 330.353,661.27 327.186,683.27 325,705.5C 322.226,721.594 317.393,736.927 310.5,751.5C 310.855,752.522 311.522,753.189 312.5,753.5C 308.943,760.275 305.11,766.942 301,773.5C 289.534,787.3 277.034,800.133 263.5,812C 235.712,832.871 204.379,842.371 169.5,840.5C 160.84,839.4 152.174,837.734 143.5,835.5C 136.761,833.634 130.094,831.468 123.5,829C 156.335,809.082 189.335,789.415 222.5,770C 227.252,767.252 231.419,763.752 235,759.5C 236.936,754.709 237.769,749.709 237.5,744.5C 233.012,685.65 203.679,644.817 149.5,622C 142.313,621.948 135.646,623.948 129.5,628C 99.0832,646.626 68.5832,665.126 38,683.5C 38.3482,673.738 39.6815,664.071 42,654.5C 60.7843,598.722 98.951,564.222 156.5,551C 175.879,549.374 195.213,547.374 214.5,545C 229.371,541.88 243.371,536.713 256.5,529.5 Z"/></g>
<g><path style="opacity:1" fill="#fefefe" d="M 153.5,875.5 C 153.5,876.167 153.833,876.5 154.5,876.5C 103.627,877.826 52.6274,877.826 1.5,876.5C 0.841918,849.875 0.508585,823.208 0.5,796.5C 0.500197,770.158 1.16686,744.158 2.5,718.5C 2.45982,721.425 3.29315,724.091 5,726.5C 11.4889,733.596 19.3222,735.429 28.5,732C 67.9877,708.662 107.321,685.162 146.5,661.5C 177.208,678.391 195.208,704.224 200.5,739C 159.429,764.397 118.096,789.397 76.5,814C 67.9368,821.281 66.4368,829.781 72,839.5C 95.878,858.684 123.045,870.684 153.5,875.5 Z"/></g>
<g><path style="opacity:1" fill="#212121" d="M 2.5,666.5 C 1.4991,682.491 1.4991,698.491 2.5,714.5C 1.88258,714.389 1.38258,714.056 1,713.5C 0.214188,698.135 0.380855,682.801 1.5,667.5C 1.5,666.833 1.83333,666.5 2.5,666.5 Z"/></g>
<g><path style="opacity:1" fill="#bac3c9" d="M 346.5,622.5 C 340.542,633.532 336.042,645.198 333,657.5C 330.334,678.823 327.667,700.157 325,721.5C 321.884,732.7 317.717,743.367 312.5,753.5C 311.522,753.189 310.855,752.522 310.5,751.5C 317.393,736.927 322.226,721.594 325,705.5C 327.186,683.27 330.353,661.27 334.5,639.5C 336.135,635.517 337.802,631.517 339.5,627.5C 340.689,626.571 342.022,626.238 343.5,626.5C 343.343,625.127 343.51,623.793 344,622.5C 344.77,621.402 345.603,621.402 346.5,622.5 Z"/></g>
<g><path style="opacity:1" fill="#d6dade" d="M 642.5,613.5 C 668.993,639.827 695.66,665.993 722.5,692C 724.717,693.275 727.051,694.275 729.5,695C 742.167,695.333 754.833,695.667 767.5,696C 772.427,696.214 776.261,698.381 779,702.5C 798.513,740.86 818.013,779.193 837.5,817.5C 835.955,821.031 833.289,822.531 829.5,822C 829.108,819.646 829.108,817.146 829.5,814.5C 828.5,814.5 827.5,814.5 826.5,814.5C 826.785,812.712 826.452,811.045 825.5,809.5C 822.874,806.559 820.874,803.226 819.5,799.5C 819.709,798.914 820.043,798.414 820.5,798C 819.333,796.5 818.167,795 817,793.5C 816.703,790.086 816.036,786.753 815,783.5C 813.795,782.929 812.628,782.262 811.5,781.5C 812.855,780.325 812.688,779.325 811,778.5C 810.667,779.833 810.333,781.167 810,782.5C 809.667,780.167 809.333,777.833 809,775.5C 808.002,778.028 807.169,778.028 806.5,775.5C 804.925,772.619 805.258,770.119 807.5,768C 804.492,763.613 802.159,758.447 800.5,752.5C 797.873,747.604 794.54,743.27 790.5,739.5C 791.872,737.38 791.205,736.38 788.5,736.5C 788.741,733.206 787.908,730.206 786,727.5C 785.667,728.167 785.333,728.833 785,729.5C 784.667,726.167 784.333,722.833 784,719.5C 783.167,716.667 781.333,714.833 778.5,714C 779.609,712.187 778.942,711.354 776.5,711.5C 776.52,709.857 775.853,708.524 774.5,707.5C 770.064,704.902 765.397,704.236 760.5,705.5C 755.74,703.411 751.073,703.411 746.5,705.5C 743.672,704.116 740.672,703.449 737.5,703.5C 734.04,704.561 730.873,704.227 728,702.5C 727.667,703.167 727.333,703.833 727,704.5C 725.635,702.14 723.635,700.473 721,699.5C 720,697.167 719,694.833 718,692.5C 717.667,692.833 717.333,693.167 717,693.5C 714.193,688.77 710.359,685.437 705.5,683.5C 705.191,680.654 703.525,679.154 700.5,679C 700.833,678.667 701.167,678.333 701.5,678C 699.006,676.011 697.173,673.511 696,670.5C 689.234,665.073 682.734,659.24 676.5,653C 670.843,645.839 664.51,639.673 657.5,634.5C 656.861,632.24 655.694,630.24 654,628.5C 648.044,625.054 644.21,620.054 642.5,613.5 Z"/></g>
<g><path style="opacity:1" fill="#d7dce0" d="M 771.5,812.5 C 749.399,801.95 727.399,791.116 705.5,780C 701.031,776.878 698.198,772.712 697,767.5C 696.761,753.809 696.261,740.142 695.5,726.5C 696.397,725.402 697.23,725.402 698,726.5C 698.333,727.833 698.667,729.167 699,730.5C 699.119,743.874 699.785,757.207 701,770.5C 702.061,773.562 703.894,776.062 706.5,778C 708.479,778.684 710.146,778.184 711.5,776.5C 712.736,777.246 714.07,777.579 715.5,777.5C 715.5,778.5 715.5,779.5 715.5,780.5C 716.833,780.5 718.167,780.5 719.5,780.5C 719.281,781.675 719.614,782.675 720.5,783.5C 730.016,788.285 739.683,792.785 749.5,797C 751.208,799.043 753.208,800.71 755.5,802C 761.675,805.588 768.009,808.922 774.5,812C 773.552,812.483 772.552,812.649 771.5,812.5 Z"/></g>
<g><path style="opacity:1" fill="#fefefe" d="M 878.5,830.5 C 878.5,845.167 878.5,859.833 878.5,874.5C 877.373,875.122 876.373,875.955 875.5,877C 860.994,877.827 846.661,877.661 832.5,876.5C 848.833,862.167 864.167,846.833 878.5,830.5 Z"/></g>
<g><path style="opacity:1" fill="#616366" d="M 143.5,835.5 C 152.174,837.734 160.84,839.4 169.5,840.5C 160.314,840.86 151.647,839.194 143.5,835.5 Z"/></g>
<g><path style="opacity:1" fill="#848585" d="M 153.5,875.5 C 155.833,875.5 158.167,875.5 160.5,875.5C 161.5,876.167 162.5,876.833 163.5,877.5C 160.391,877.736 157.391,877.403 154.5,876.5C 153.833,876.5 153.5,876.167 153.5,875.5 Z"/></g>
<g><path style="opacity:1" fill="#3b3d3d" d="M 160.5,875.5 C 164.79,875.198 168.79,875.864 172.5,877.5C 169.5,877.5 166.5,877.5 163.5,877.5C 162.5,876.833 161.5,876.167 160.5,875.5 Z"/></g>
<g><path style="opacity:1" fill="#e2e2e2" d="M 878.5,874.5 C 878.5,875.167 878.5,875.833 878.5,876.5C 877.711,876.783 877.044,877.283 876.5,878C 585.167,878.667 293.833,878.667 2.5,878C 1.94404,877.617 1.61071,877.117 1.5,876.5C 52.6274,877.826 103.627,877.826 154.5,876.5C 157.391,877.403 160.391,877.736 163.5,877.5C 166.5,877.5 169.5,877.5 172.5,877.5C 183.581,877.81 194.581,877.477 205.5,876.5C 306.999,877.167 408.666,877.5 510.5,877.5C 612.502,877.5 714.169,876.833 815.5,875.5C 821.02,877.654 826.686,877.987 832.5,876.5C 846.661,877.661 860.994,877.827 875.5,877C 876.373,875.955 877.373,875.122 878.5,874.5 Z"/></g>
<g><path style="opacity:1" fill="#8fbbe9" d="M -0.5,875.5 C 0.166667,875.833 0.833333,876.167 1.5,876.5C 1.61071,877.117 1.94404,877.617 2.5,878C 293.833,878.667 585.167,878.667 876.5,878C 877.044,877.283 877.711,876.783 878.5,876.5C 878.5,877.833 878.5,879.167 878.5,880.5C 585.5,880.5 292.5,880.5 -0.5,880.5C -0.5,878.833 -0.5,877.167 -0.5,875.5 Z"/></g>
</svg>
